<svg xmlns="http://www.w3.org/2000/svg" viewBox="0 0 278.064 63.929">
  <g id="wordmark" transform="translate(-163.324 -658.964)">
    <path d="M-126.144.432A11.537,11.537,0,0,0-117.288-3.2a3.447,3.447,0,0,0,.9-2.268,3.442,3.442,0,0,0-3.42-3.42,3.351,3.351,0,0,0-2.556,1.152,4.974,4.974,0,0,1-3.78,1.764,5.7,5.7,0,0,1-5.652-6.012A5.7,5.7,0,0,1-126.144-18a4.974,4.974,0,0,1,3.78,1.764,3.351,3.351,0,0,0,2.556,1.152,3.449,3.449,0,0,0,3.456-3.42,3.593,3.593,0,0,0-.936-2.34,11.393,11.393,0,0,0-8.856-3.564c-7.344,0-13.032,5-13.032,12.42C-139.176-4.608-133.488.432-126.144.432ZM-103.9,0h9.72a3.173,3.173,0,0,0,3.168-3.168,3.173,3.173,0,0,0-3.168-3.168h-6.3v-14.4a3.649,3.649,0,0,0-3.636-3.636,3.649,3.649,0,0,0-3.636,3.636V-3.852A3.475,3.475,0,0,0-103.9,0Zm24.48.36A3.649,3.649,0,0,0-75.78-3.276v-17.46a3.649,3.649,0,0,0-3.636-3.636,3.649,3.649,0,0,0-3.636,3.636v17.46A3.649,3.649,0,0,0-79.416.36Zm24.66.072A11.537,11.537,0,0,0-45.9-3.2,3.447,3.447,0,0,0-45-5.472a3.442,3.442,0,0,0-3.42-3.42A3.351,3.351,0,0,0-50.976-7.74a4.974,4.974,0,0,1-3.78,1.764,5.7,5.7,0,0,1-5.652-6.012A5.7,5.7,0,0,1-54.756-18a4.974,4.974,0,0,1,3.78,1.764,3.351,3.351,0,0,0,2.556,1.152,3.449,3.449,0,0,0,3.456-3.42,3.593,3.593,0,0,0-.936-2.34,11.393,11.393,0,0,0-8.856-3.564c-7.344,0-13.032,5-13.032,12.42C-67.788-4.608-62.1.432-54.756.432Zm38.664-5.868-6.192-7.452,5.472-5.868a3.255,3.255,0,0,0,.792-2.2,3.429,3.429,0,0,0-3.384-3.42,3.355,3.355,0,0,0-2.52,1.116l-7.164,8.208v-5.688a3.649,3.649,0,0,0-3.636-3.636,3.649,3.649,0,0,0-3.636,3.636v17.46A3.649,3.649,0,0,0-32.724.36a3.649,3.649,0,0,0,3.636-3.636V-6.624l1.512-1.8,6.084,7.6A3.455,3.455,0,0,0-18.828.36,3.562,3.562,0,0,0-15.3-3.2,3.377,3.377,0,0,0-16.092-5.436ZM15.444.36A4.805,4.805,0,0,0,20.052-3.1l4.68-16.38a3.716,3.716,0,0,0,.144-1.08,3.818,3.818,0,0,0-3.816-3.816,3.83,3.83,0,0,0-3.78,3.06L14.8-9.324,11.7-21.816a3.362,3.362,0,0,0-3.276-2.556,3.362,3.362,0,0,0-3.276,2.556L2.052-9.324-.468-21.348a3.824,3.824,0,0,0-3.744-3.024,3.8,3.8,0,0,0-3.816,3.816,3.48,3.48,0,0,0,.144,1.044L-3.2-3.1A4.805,4.805,0,0,0,1.4.36a4.793,4.793,0,0,0,4.68-3.744l2.34-10.224,2.34,10.224A4.793,4.793,0,0,0,15.444.36Zm37.008,0a3.649,3.649,0,0,0,3.636-3.636v-17.46a3.649,3.649,0,0,0-3.636-3.636,3.649,3.649,0,0,0-3.636,3.636v5.22h-8.6v-5.22a3.649,3.649,0,0,0-3.636-3.636,3.649,3.649,0,0,0-3.636,3.636v17.46A3.649,3.649,0,0,0,36.576.36a3.649,3.649,0,0,0,3.636-3.636v-5.9h8.6v5.9A3.649,3.649,0,0,0,52.452.36Zm35.172-4.9-5.8-15.7a6.334,6.334,0,0,0-5.976-4.14,6.334,6.334,0,0,0-5.976,4.14l-5.8,15.7a3.708,3.708,0,0,0-.216,1.26A3.626,3.626,0,0,0,67.5.36a3.651,3.651,0,0,0,3.492-2.592l.4-1.3h8.928l.4,1.3A3.651,3.651,0,0,0,84.2.36,3.626,3.626,0,0,0,87.84-3.276,3.708,3.708,0,0,0,87.624-4.536ZM73.3-9.576,75.852-17.6l2.556,8.028ZM99.468,0h9.72a3.173,3.173,0,0,0,3.168-3.168,3.173,3.173,0,0,0-3.168-3.168h-6.3v-14.4a3.649,3.649,0,0,0-3.636-3.636,3.649,3.649,0,0,0-3.636,3.636V-3.852A3.475,3.475,0,0,0,99.468,0Zm24.7,0h11.7a3.042,3.042,0,0,0,3.024-3.024,3.042,3.042,0,0,0-3.024-3.024h-8.28v-3.06h8.028a3.042,3.042,0,0,0,3.024-3.024,3.042,3.042,0,0,0-3.024-3.024h-8.028v-2.808h8.28a3.042,3.042,0,0,0,3.024-3.024,3.042,3.042,0,0,0-3.024-3.024h-11.7a3.475,3.475,0,0,0-3.852,3.852V-3.852A3.475,3.475,0,0,0,124.164,0Z" transform="translate(302.5 722.46)" fill="#ffffff"/>
    <path d="M.675,1.382,0,23.446a1.423,1.423,0,0,0,2.033,1.329L7.458,22.2a1.423,1.423,0,0,1,1.9.68l3.5,7.433a1.423,1.423,0,0,0,1.889.684l1.9-.886a1.424,1.424,0,0,0,.686-1.9L13.841,20.8a1.424,1.424,0,0,1,.7-1.9l5.219-2.386a1.423,1.423,0,0,0,.3-2.4L2.992.319A1.423,1.423,0,0,0,.675,1.382" transform="matrix(-0.99, -0.139, 0.139, -0.99, 222.846, 693.296)" fill="#ffffff"/>
    <path d="M1.023,0,0,8.944" transform="translate(228.793 682.672) rotate(7)" stroke="#ffffff" stroke-linecap="round" stroke-width="4"/>
    <path d="M0,0,7.666,3.194" transform="translate(208.116 691.719) rotate(7)" stroke="#ffffff" stroke-linecap="round" stroke-width="4"/>
  </g>
</svg>
