<svg xmlns="http://www.w3.org/2000/svg" width="20" height="20" viewBox="0 0 19.441 13.695">
  <g id="clickwhale-reduced" transform="translate(-6441.28 941.974)">
    <path id="Pfad_407" data-name="Pfad 407" d="M27.167,122.958V127.1c0,.021,0,.042,0,.063a3.137,3.137,0,0,1-3.121,3.092H12.52a2.986,2.986,0,0,1-2.97-3v-1.131a.937.937,0,0,0-.589-.877,1.941,1.941,0,0,1-1.235-1.813h.861a1.93,1.93,0,0,1,1.92,1.918h0a1.93,1.93,0,0,1,1.92-1.918h.861A1.942,1.942,0,0,1,12.16,125.2a.933.933,0,0,0-.534.853v.164a1.463,1.463,0,0,0,.422,1.031,1.432,1.432,0,0,0,1.02.427,1.45,1.45,0,0,0,1.442-1.458v-3.26a6.412,6.412,0,0,1,1.246-3.811,6.3,6.3,0,0,1,5.083-2.585A6.362,6.362,0,0,1,27.167,122.958Z" transform="translate(6433.554 -1058.536)" fill="#fff"/>
    <path id="Pfad_408" data-name="Pfad 408" d="M395.693,253.191v.824a.38.38,0,0,0,.76,0v-.824a.38.38,0,0,0-.76,0Z" transform="translate(6060.102 -1189.261)" fill="#fff"/>
    <path id="Pfad_409" data-name="Pfad 409" d="M425.847,252.811a.38.38,0,0,0-.38.38v.824a.38.38,0,0,0,.76,0v-.824A.38.38,0,0,0,425.847,252.811Z" transform="translate(6032.201 -1189.261)" fill="#fff"/>
  </g>
</svg>
