<svg xmlns="http://www.w3.org/2000/svg" width="20" height="20" viewBox="0 0 232.912 208.449" fill="#ffffff">
  <g id="click-whale-bw" transform="translate(0 -28.22)">
	<path id="Pfad_393" data-name="Pfad 393" d="M32.311,213.412a3.521,3.521,0,0,0,7.042,0,18.859,18.859,0,0,1,18.79-18.577H64.3A18.85,18.85,0,0,1,53.58,208.448a14.246,14.246,0,0,0-8.269,13.008v1.889a20.277,20.277,0,0,0,40.554,0V185.874a70.011,70.011,0,0,1,114.519-54.038,3.515,3.515,0,1,0,4.472-5.423A77.04,77.04,0,0,0,78.835,185.874v37.471a13.247,13.247,0,0,1-26.495,0v-1.889a7.205,7.205,0,0,1,4.138-6.6A25.88,25.88,0,0,0,71.663,191.32a3.514,3.514,0,0,0-3.515-3.515H58.143a25.9,25.9,0,0,0-22.311,12.872A25.9,25.9,0,0,0,13.52,187.805H3.515A3.514,3.514,0,0,0,0,191.32a25.978,25.978,0,0,0,16.606,24.13,7.272,7.272,0,0,1,4.579,6.8v13A38.176,38.176,0,0,0,33.2,262.995a3.515,3.515,0,1,0,4.809-5.127,30.707,30.707,0,0,1-9.8-22.615v-13a14.342,14.342,0,0,0-9.1-13.367,18.93,18.93,0,0,1-11.75-14.05H13.52A18.859,18.859,0,0,1,32.311,213.412Z" transform="translate(0 -36.612)"/>
    <path id="Pfad_394" data-name="Pfad 394" d="M282.926,240.253v-20.69a76.257,76.257,0,0,0-16.446-47.58,3.515,3.515,0,1,0-5.526,4.345A69.292,69.292,0,0,1,275.9,219.563v16.491a40.217,40.217,0,0,0-4.629-.269H196.749a39.825,39.825,0,0,0-39.778,39.782v24.374H109.229A30.766,30.766,0,0,1,96.694,297.3a3.515,3.515,0,1,0-2.846,6.428,37.761,37.761,0,0,0,15.381,3.24H243.146a39.825,39.825,0,0,0,39.78-39.78V240.312C282.927,240.292,282.926,240.273,282.926,240.253Zm-61.245,59.688h-6.656a39.759,39.759,0,0,0,17.235-32.749v-.11a3.515,3.515,0,0,0-7.029,0v.11a32.785,32.785,0,0,1-32.748,32.748h-6.656a39.759,39.759,0,0,0,17.235-32.749V242.814h22.17v12.553a3.515,3.515,0,1,0,7.029,0V242.814h22.17v24.378A32.787,32.787,0,0,1,221.681,299.941Zm-25.65-57.108v24.36A32.78,32.78,0,0,1,164,299.923V275.567A32.782,32.782,0,0,1,196.031,242.833Zm48.233,57.081a39.757,39.757,0,0,0,17.2-32.721V242.814h9.809a33.07,33.07,0,0,1,4.629.338v24.039A32.785,32.785,0,0,1,244.264,299.914Z" transform="translate(-50.015 -70.301)"/>
    <path id="Pfad_395" data-name="Pfad 395" d="M395.693,256.326v7.613a3.515,3.515,0,1,0,7.029,0v-7.613a3.515,3.515,0,0,0-7.029,0Z" transform="translate(-215.69 -115.092)"/>
    <path id="Pfad_396" data-name="Pfad 396" d="M428.982,252.811a3.514,3.514,0,0,0-3.515,3.515v7.613a3.515,3.515,0,0,0,7.029,0v-7.613A3.514,3.514,0,0,0,428.982,252.811Z" transform="translate(-231.92 -115.092)"/>
    <path id="Pfad_398" data-name="Pfad 398" d="M294.907,68.847a3.515,3.515,0,1,0,5.312-4.6L291.081,53.7a3.515,3.515,0,1,0-5.312,4.6Z" transform="translate(-192.556 178.096) rotate(-31)"/>
    <path id="Pfad_399" data-name="Pfad 399" d="M357.2,69.2a3.515,3.515,0,0,0,4.958-.354L371.3,58.3a3.515,3.515,0,1,0-5.312-4.6l-9.138,10.544A3.515,3.515,0,0,0,357.2,69.2Z" transform="translate(-225.766 198.052) rotate(-31)"/>
    <path id="Pfad_386" data-name="Pfad 386" d="M4652.851-394.9s-.924-3.273,0-4.942c.432-.815,2.333-2.993,4.771-1.465" transform="matrix(0.848, 0.53, -0.53, 0.848, -4045.235, -1988.734)" fill="none" stroke="#ffffff" stroke-linecap="round" stroke-width="5"/>
    <path id="Pfad_401" data-name="Pfad 401" d="M4697.875-375.807c-4.974,0-14.492-4.65-19.059-10.426-3.093-3.913-3.013-7.177-2.4-9.226a3,3,0,0,1,3.733-2.016,3,3,0,0,1,2.016,3.733c-.371,1.241.535,2.745,1.359,3.788,3.714,4.7,11.83,8.295,14.426,8.146,2.846-.162,8.5-.9,16.814-2.2l2.273-.355,1.8,1.971-2.743,1.216.383,2.975c-3.953.617-13.6,2.126-18.182,2.386C4698.157-375.811,4698.017-375.807,4697.875-375.807Z" transform="translate(-4568.208 -192.665) rotate(9)"/>
    <path id="Pfad_401-2" data-name="Pfad 401" d="M1.056,2.164,0,36.7a2.228,2.228,0,0,0,3.183,2.08l8.49-4.034a2.228,2.228,0,0,1,2.972,1.064l5.476,11.634a2.227,2.227,0,0,0,2.957,1.071l2.973-1.386a2.229,2.229,0,0,0,1.074-2.968L21.665,32.555a2.228,2.228,0,0,1,1.089-2.975l8.17-3.735a2.228,2.228,0,0,0,.474-3.759L4.683.5A2.228,2.228,0,0,0,1.056,2.164" transform="translate(109.604 76.582) rotate(173)"/>
  </g>
</svg>
