<svg xmlns="http://www.w3.org/2000/svg" viewBox="0 0 316.684 255.175">
  <g id="click-whale-w-text" transform="translate(25.05 -28.22)">
    <path id="Pfad_389" data-name="Pfad 389" d="M233.609,190.087v47.628c0,.239,0,.483-.01.721a36.258,36.258,0,0,1-36.258,35.541H63.424a34.511,34.511,0,0,1-34.511-34.515v-13a10.771,10.771,0,0,0-6.842-10.085A22.317,22.317,0,0,1,7.726,195.532H17.731a22.307,22.307,0,0,1,22.307,22.049h.01a22.307,22.307,0,0,1,22.307-22.049H72.36a22.309,22.309,0,0,1-13.117,20.329,10.721,10.721,0,0,0-6.2,9.8v1.889a16.761,16.761,0,1,0,33.522,0V190.087a73.525,73.525,0,1,1,147.05,0Z" transform="translate(-4.211 -40.823)" fill="#71b4e0"/>
    <path id="Pfad_390" data-name="Pfad 390" d="M233.6,274.045a36.258,36.258,0,0,1-36.258,35.541H63.424a34.511,34.511,0,0,1-34.511-34.515v-13a10.771,10.771,0,0,0-6.842-10.085A22.317,22.317,0,0,1,7.726,231.141H17.731A22.307,22.307,0,0,1,40.038,253.19h.01a22.307,22.307,0,0,1,22.307-22.049H72.36A22.309,22.309,0,0,1,59.243,251.47a10.721,10.721,0,0,0-6.2,9.8v1.889a16.761,16.761,0,1,0,33.522,0V225.7a73.187,73.187,0,0,1,14.471-43.808s-7.747,69.522,37.941,91.436C166.674,286.609,206.518,280.732,233.6,274.045Z" transform="translate(-4.211 -76.431)" fill="#4c98c6"/>
    <path id="Pfad_391" data-name="Pfad 391" d="M361.772,322.489v26.97c0,.244,0,.483-.01.727A36.267,36.267,0,0,1,325.5,385.727H242.846V357.839a36.263,36.263,0,0,1,36.263-36.268h74.518A36.4,36.4,0,0,1,361.772,322.489Z" transform="translate(-132.374 -152.572)" fill="#e6ebed"/>
    <path id="Pfad_392" data-name="Pfad 392" d="M361.762,368.127A36.267,36.267,0,0,1,325.5,403.668H242.846V375.78a36.094,36.094,0,0,1,6.908-21.3,56.507,56.507,0,0,0,17.382,12.92C294.836,380.691,334.68,374.814,361.762,368.127Z" transform="translate(-132.374 -170.514)" fill="#dbdddd"/>
    <path id="Pfad_393" data-name="Pfad 393" d="M32.311,213.412a3.521,3.521,0,0,0,7.042,0,18.859,18.859,0,0,1,18.79-18.577H64.3A18.85,18.85,0,0,1,53.58,208.448a14.246,14.246,0,0,0-8.269,13.008v1.889a20.277,20.277,0,0,0,40.554,0V185.874a70.011,70.011,0,0,1,114.519-54.038,3.515,3.515,0,1,0,4.472-5.423A77.04,77.04,0,0,0,78.835,185.874v37.471a13.247,13.247,0,0,1-26.495,0v-1.889a7.205,7.205,0,0,1,4.138-6.6A25.88,25.88,0,0,0,71.663,191.32a3.514,3.514,0,0,0-3.515-3.515H58.143a25.9,25.9,0,0,0-22.311,12.872A25.9,25.9,0,0,0,13.52,187.805H3.515A3.514,3.514,0,0,0,0,191.32a25.978,25.978,0,0,0,16.606,24.13,7.272,7.272,0,0,1,4.579,6.8v13A38.176,38.176,0,0,0,33.2,262.995a3.515,3.515,0,1,0,4.809-5.127,30.707,30.707,0,0,1-9.8-22.615v-13a14.342,14.342,0,0,0-9.1-13.367,18.93,18.93,0,0,1-11.75-14.05H13.52A18.859,18.859,0,0,1,32.311,213.412Z" transform="translate(0 -36.612)"/>
    <path id="Pfad_394" data-name="Pfad 394" d="M282.926,240.253v-20.69a76.257,76.257,0,0,0-16.446-47.58,3.515,3.515,0,1,0-5.526,4.345A69.292,69.292,0,0,1,275.9,219.563v16.491a40.217,40.217,0,0,0-4.629-.269H196.749a39.825,39.825,0,0,0-39.778,39.782v24.374H109.229A30.766,30.766,0,0,1,96.694,297.3a3.515,3.515,0,1,0-2.846,6.428,37.761,37.761,0,0,0,15.381,3.24H243.146a39.825,39.825,0,0,0,39.78-39.78V240.312C282.927,240.292,282.926,240.273,282.926,240.253Zm-61.245,59.688h-6.656a39.759,39.759,0,0,0,17.235-32.749v-.11a3.515,3.515,0,0,0-7.029,0v.11a32.785,32.785,0,0,1-32.748,32.748h-6.656a39.759,39.759,0,0,0,17.235-32.749V242.814h22.17v12.553a3.515,3.515,0,1,0,7.029,0V242.814h22.17v24.378A32.787,32.787,0,0,1,221.681,299.941Zm-25.65-57.108v24.36A32.78,32.78,0,0,1,164,299.923V275.567A32.782,32.782,0,0,1,196.031,242.833Zm48.233,57.081a39.757,39.757,0,0,0,17.2-32.721V242.814h9.809a33.07,33.07,0,0,1,4.629.338v24.039A32.785,32.785,0,0,1,244.264,299.914Z" transform="translate(-50.015 -70.301)"/>
    <path id="Pfad_395" data-name="Pfad 395" d="M395.693,256.326v7.613a3.515,3.515,0,1,0,7.029,0v-7.613a3.515,3.515,0,0,0-7.029,0Z" transform="translate(-215.69 -115.092)"/>
    <path id="Pfad_396" data-name="Pfad 396" d="M428.982,252.811a3.514,3.514,0,0,0-3.515,3.515v7.613a3.515,3.515,0,0,0,7.029,0v-7.613A3.514,3.514,0,0,0,428.982,252.811Z" transform="translate(-231.92 -115.092)"/>
    <path id="Pfad_398" data-name="Pfad 398" d="M294.907,68.847a3.515,3.515,0,1,0,5.312-4.6L291.081,53.7a3.515,3.515,0,1,0-5.312,4.6Z" transform="translate(-192.556 178.096) rotate(-31)"/>
    <path id="Pfad_399" data-name="Pfad 399" d="M357.2,69.2a3.515,3.515,0,0,0,4.958-.354L371.3,58.3a3.515,3.515,0,1,0-5.312-4.6l-9.138,10.544A3.515,3.515,0,0,0,357.2,69.2Z" transform="translate(-225.766 198.052) rotate(-31)"/>
    <path id="Pfad_386" data-name="Pfad 386" d="M4652.851-394.9s-.924-3.273,0-4.942c.432-.815,2.333-2.993,4.771-1.465" transform="matrix(0.848, 0.53, -0.53, 0.848, -4045.235, -1988.734)" fill="none" stroke="#000" stroke-linecap="round" stroke-width="5"/>
    <path id="Pfad_401" data-name="Pfad 401" d="M4697.875-375.807c-4.974,0-14.492-4.65-19.059-10.426-3.093-3.913-3.013-7.177-2.4-9.226a3,3,0,0,1,3.733-2.016,3,3,0,0,1,2.016,3.733c-.371,1.241.535,2.745,1.359,3.788,3.714,4.7,11.83,8.295,14.426,8.146,2.846-.162,8.5-.9,16.814-2.2l2.273-.355,1.8,1.971-2.743,1.216.383,2.975c-3.953.617-13.6,2.126-18.182,2.386C4698.157-375.811,4698.017-375.807,4697.875-375.807Z" transform="translate(-4568.208 -192.665) rotate(9)"/>
    <path id="Pfad_401-2" data-name="Pfad 401" d="M1.056,2.164,0,36.7a2.228,2.228,0,0,0,3.183,2.08l8.49-4.034a2.228,2.228,0,0,1,2.972,1.064l5.476,11.634a2.227,2.227,0,0,0,2.957,1.071l2.973-1.386a2.229,2.229,0,0,0,1.074-2.968L21.665,32.555a2.228,2.228,0,0,1,1.089-2.975l8.17-3.735a2.228,2.228,0,0,0,.474-3.759L4.683.5A2.228,2.228,0,0,0,1.056,2.164" transform="translate(109.604 76.582) rotate(173)"/>
    <path id="Pfad_405" data-name="Pfad 405" d="M-143.664.492a13.14,13.14,0,0,0,10.086-4.141,3.926,3.926,0,0,0,1.025-2.583,3.92,3.92,0,0,0-3.895-3.895,3.817,3.817,0,0,0-2.911,1.312,5.665,5.665,0,0,1-4.3,2.009c-3.772,0-6.437-3.034-6.437-6.847s2.665-6.847,6.437-6.847a5.665,5.665,0,0,1,4.3,2.009,3.817,3.817,0,0,0,2.911,1.312,3.929,3.929,0,0,0,3.936-3.895,4.092,4.092,0,0,0-1.066-2.665c-2.132-2.337-5.33-4.059-10.086-4.059-8.364,0-14.842,5.7-14.842,14.145C-158.506-5.248-152.028.492-143.664.492ZM-118.326,0h11.07a3.613,3.613,0,0,0,3.608-3.608,3.613,3.613,0,0,0-3.608-3.608h-7.175v-16.4a4.156,4.156,0,0,0-4.141-4.141,4.156,4.156,0,0,0-4.141,4.141V-4.387C-122.713-1.558-121.155,0-118.326,0Zm27.88.41a4.156,4.156,0,0,0,4.141-4.141V-23.616a4.156,4.156,0,0,0-4.141-4.141,4.156,4.156,0,0,0-4.141,4.141V-3.731A4.156,4.156,0,0,0-90.446.41Zm28.085.082A13.14,13.14,0,0,0-52.275-3.649,3.926,3.926,0,0,0-51.25-6.232a3.92,3.92,0,0,0-3.9-3.895,3.817,3.817,0,0,0-2.911,1.312,5.665,5.665,0,0,1-4.305,2.009c-3.772,0-6.437-3.034-6.437-6.847s2.665-6.847,6.437-6.847a5.665,5.665,0,0,1,4.305,2.009,3.817,3.817,0,0,0,2.911,1.312,3.929,3.929,0,0,0,3.936-3.895,4.092,4.092,0,0,0-1.066-2.665c-2.132-2.337-5.33-4.059-10.086-4.059-8.364,0-14.842,5.7-14.842,14.145C-77.2-5.248-70.725.492-62.361.492Zm44.034-6.683-7.052-8.487,6.232-6.683a3.707,3.707,0,0,0,.9-2.5A3.906,3.906,0,0,0-22.1-27.757a3.821,3.821,0,0,0-2.87,1.271l-8.159,9.348v-6.478a4.156,4.156,0,0,0-4.141-4.141,4.156,4.156,0,0,0-4.141,4.141V-3.731A4.156,4.156,0,0,0-37.269.41a4.156,4.156,0,0,0,4.141-4.141V-7.544l1.722-2.05,6.929,8.651A3.934,3.934,0,0,0-21.443.41a4.057,4.057,0,0,0,4.018-4.059A3.846,3.846,0,0,0-18.327-6.191ZM17.589.41a5.473,5.473,0,0,0,5.248-3.936l5.33-18.655a4.232,4.232,0,0,0,.164-1.23,4.348,4.348,0,0,0-4.346-4.346,4.362,4.362,0,0,0-4.305,3.485L16.851-10.619,13.325-24.846a3.829,3.829,0,0,0-3.731-2.911,3.829,3.829,0,0,0-3.731,2.911L2.337-10.619-.533-24.313A4.355,4.355,0,0,0-4.8-27.757a4.322,4.322,0,0,0-4.346,4.346,3.963,3.963,0,0,0,.164,1.189l5.33,18.7A5.473,5.473,0,0,0,1.6.41a5.459,5.459,0,0,0,5.33-4.264L9.594-15.5,12.259-3.854A5.459,5.459,0,0,0,17.589.41Zm42.148,0a4.156,4.156,0,0,0,4.141-4.141V-23.616a4.156,4.156,0,0,0-4.141-4.141A4.156,4.156,0,0,0,55.6-23.616v5.945H45.8v-5.945a4.156,4.156,0,0,0-4.141-4.141,4.156,4.156,0,0,0-4.141,4.141V-3.731A4.156,4.156,0,0,0,41.656.41,4.156,4.156,0,0,0,45.8-3.731v-6.724h9.8v6.724A4.156,4.156,0,0,0,59.737.41ZM99.794-5.166l-6.6-17.876a7.214,7.214,0,0,0-6.806-4.715,7.214,7.214,0,0,0-6.806,4.715L72.98-5.166a4.223,4.223,0,0,0-.246,1.435A4.13,4.13,0,0,0,76.875.41a4.158,4.158,0,0,0,3.977-2.952L81.3-4.018H91.471l.451,1.476A4.158,4.158,0,0,0,95.9.41a4.13,4.13,0,0,0,4.141-4.141A4.223,4.223,0,0,0,99.794-5.166Zm-16.318-5.74,2.911-9.143L89.3-10.906ZM113.283,0h11.07a3.613,3.613,0,0,0,3.608-3.608,3.613,3.613,0,0,0-3.608-3.608h-7.175v-16.4a4.156,4.156,0,0,0-4.141-4.141,4.156,4.156,0,0,0-4.141,4.141V-4.387C108.9-1.558,110.454,0,113.283,0Zm28.126,0h13.325a3.465,3.465,0,0,0,3.444-3.444,3.465,3.465,0,0,0-3.444-3.444H145.3v-3.485h9.143a3.465,3.465,0,0,0,3.444-3.444,3.465,3.465,0,0,0-3.444-3.444H145.3v-3.2h9.43a3.465,3.465,0,0,0,3.444-3.444,3.465,3.465,0,0,0-3.444-3.444H141.409c-2.829,0-4.387,1.558-4.387,4.387V-4.387C137.022-1.558,138.58,0,141.409,0Z" transform="translate(133.456 282.903)"/>
  </g>
</svg>
