<?xml version="1.0" encoding="utf-8"?>
<svg viewBox="0 0 500 500" xmlns="http://www.w3.org/2000/svg">
  <g id="Gruppe_1987" data-name="Gruppe 1987" transform="matrix(0.282828, 0, 0, 0.282828, -499.713898, -150.28479)">
    <g id="Gruppe_1974" data-name="Gruppe 1974" transform="translate(1766.847 623.289)">
      <g id="whale" transform="translate(0 0)">
        <g id="click-whale-w-text" transform="translate(0 0)">
          <path id="Pfad_389" data-name="Pfad 389" d="M7.726,674.638v361.508c0,1.813.035,3.663.072,5.476,2.88,149.506,125,269.769,275.211,269.769H1299.483c144.668,0,261.944-117.276,261.944-261.979V950.74c0-33.721,20.417-64.489,51.935-76.55a169.389,169.389,0,0,0,108.882-158.221H1646.3a169.317,169.317,0,0,0-169.318,167.36h-.073a169.318,169.318,0,0,0-169.318-167.36h-75.942a169.334,169.334,0,0,0,99.563,154.305c29.025,13.124,47.1,42.616,47.1,74.413v14.336a127.219,127.219,0,1,1-254.438,0V674.635a555.51,555.51,0,0,0-109.843-332.518c-101.7-136.879-264.61-225.555-448.23-225.555C257.578,116.569,7.726,366.418,7.726,674.638Z" transform="translate(18.942 244.116)" fill="#6a9eff"/>
          <path id="Pfad_390" data-name="Pfad 390" d="M7.726,881.391c2.88,149.507,125,269.77,275.211,269.77H1299.411c144.668,0,261.944-117.276,261.944-261.979V790.509c0-33.72,20.417-64.489,51.935-76.55a169.39,169.39,0,0,0,108.882-158.22H1646.23A169.317,169.317,0,0,0,1476.912,723.1h-.073a169.317,169.317,0,0,0-169.318-167.36h-75.942a169.335,169.335,0,0,0,99.563,154.305c29.025,13.123,47.1,42.615,47.1,74.412v14.336a127.219,127.219,0,1,1-254.438,0V514.4a555.51,555.51,0,0,0-109.843-332.517s58.8,527.694-287.982,694.022C515.715,976.757,213.289,932.149,7.726,881.391Z" transform="translate(19.015 404.349)" fill="#397eff"/>
          <path id="Pfad_391" data-name="Pfad 391" d="M242.846,328.543v204.71c0,1.851.035,3.663.073,5.514,2.917,149.467,125.031,269.768,275.209,269.768h627.4V596.854A275.248,275.248,0,0,0,870.28,321.571H304.666A276.3,276.3,0,0,0,242.846,328.543Z" transform="translate(-216.179 746.975)" fill="#e6ebed"/>
          <path id="Pfad_392" data-name="Pfad 392" d="M242.846,458.033C245.763,607.5,367.878,727.8,518.055,727.8h627.4V516.12a273.963,273.963,0,0,0-52.432-161.635,428.89,428.89,0,0,1-131.934,98.068C750.834,553.4,448.408,508.79,242.846,458.033Z" transform="translate(-216.105 827.709)" fill="#dbdddd"/>
          <path id="Pfad_393" data-name="Pfad 393" d="M1319.378,902.592a26.728,26.728,0,0,1-53.45,0c-.894-77.751-64.876-141.008-142.624-141.008h-46.742a143.074,143.074,0,0,0,81.377,103.327c38.13,17.258,62.766,56.016,62.766,98.738v14.34c0,84.865-69.043,153.908-153.908,153.908S912.89,1062.853,912.89,977.988V693.573c0-293-238.379-531.378-531.382-531.378A532.161,532.161,0,0,0,43.656,283.407,26.678,26.678,0,1,1,9.711,242.242a585.642,585.642,0,0,1,371.8-133.4c322.428,0,584.739,262.311,584.739,584.736V977.988a100.551,100.551,0,1,0,201.1,0v-14.34c0-21.815-12.33-41.493-31.411-50.128a196.438,196.438,0,0,1-115.257-178.614,26.675,26.675,0,0,1,26.677-26.677H1123.3c71.909,0,135.249,39.383,169.349,97.706,34.1-58.326,97.443-97.706,169.353-97.706h75.942a26.675,26.675,0,0,1,26.677,26.677c0,80.728-50.65,154.336-126.043,183.157-20.789,7.945-34.756,28.69-34.756,51.621v98.682a289.769,289.769,0,0,1-91.218,210.57,26.679,26.679,0,1,1-36.5-38.917,233.076,233.076,0,0,0,74.361-171.653V969.685c0-44.895,27.758-85.666,69.061-101.459,46.424-17.751,79.958-58.83,89.184-106.642H1462C1384.251,761.587,1320.269,824.841,1319.378,902.592Z" transform="translate(203.239 225.168)"/>
          <path id="Pfad_394" data-name="Pfad 394" d="M91.756,699.019V541.976c0-132.407,43.165-257.287,124.828-361.145a26.677,26.677,0,0,1,41.942,32.978c-74.2,94.36-113.413,207.838-113.413,328.164V667.142a305.277,305.277,0,0,1,35.133-2.044H745.862c166.483,0,301.925,135.462,301.925,301.96v185.007h362.378a233.516,233.516,0,0,0,95.147-20.023,26.68,26.68,0,1,1,21.6,48.79,286.623,286.623,0,0,1-116.748,24.594H393.7c-166.493,0-301.942-135.449-301.942-301.939V699.465C91.752,699.313,91.756,699.167,91.756,699.019Zm464.865,453.047c.025,0,.045,0,.07,0h50.453c-78.95-54.517-130.819-145.584-130.819-248.572v-.836a26.677,26.677,0,1,1,53.354,0v.836c0,137.061,111.507,248.568,248.569,248.568.024,0,.045,0,.069,0h50.453C749.82,1097.553,697.951,1006.487,697.951,903.5V718.459H529.675v95.278a26.677,26.677,0,1,1-53.354,0V718.459H308.047V903.5C308.057,1040.56,419.56,1152.066,556.621,1152.066ZM751.315,718.6V903.5c0,135.235,108.569,245.509,243.116,248.43V967.062C994.431,831.81,885.863,721.518,751.315,718.6Zm-366.1,433.261c-78.78-54.541-130.518-145.5-130.518-248.36V718.459H180.239a250.987,250.987,0,0,0-35.133,2.569v182.46C145.113,1037.714,252.062,1147.357,385.211,1151.858Z" transform="translate(-91.754 376.764)"/>
          <path id="Pfad_395" data-name="Pfad 395" d="M449.046,279.488v57.783a26.677,26.677,0,1,1-53.353,0V279.488a26.677,26.677,0,1,1,53.353,0Z" transform="translate(-47.456 578.316)"/>
          <path id="Pfad_396" data-name="Pfad 396" d="M452.144,252.811a26.674,26.674,0,0,1,26.676,26.677v57.784a26.676,26.676,0,0,1-53.353,0V279.488A26.674,26.674,0,0,1,452.144,252.811Z" transform="translate(-180.036 578.316)"/>
          <path id="Pfad_398" data-name="Pfad 398" d="M75.882,9.205A26.678,26.678,0,1,1,116.2,44.148L46.84,124.179A26.678,26.678,0,1,1,6.517,89.236Z" transform="translate(1101.871 479.625) rotate(-149)"/>
          <path id="Pfad_399" data-name="Pfad 399" d="M9.208,6.516a26.682,26.682,0,0,1,37.633,2.69L116.2,89.236A26.678,26.678,0,1,1,75.88,124.179L6.518,44.148A26.676,26.676,0,0,1,9.208,6.516Z" transform="translate(891.501 353.217) rotate(-149)"/>
          <path id="Pfad_386" data-name="Pfad 386" d="M26.442,55.663a24.3,24.3,0,0,1-6.311-.844C9.776,52.045,2.741,43.2.468,38.914-7.035,25.373-.068.247.232-.815a3,3,0,0,1,3.7-2.071A3,3,0,0,1,6.006.814c-.067.237-6.6,23.811-.263,35.241C7.257,38.91,13.016,46.7,21.684,49.023c5.284,1.416,10.685.428,16.052-2.936a3,3,0,1,1,3.186,5.084A27.084,27.084,0,0,1,26.442,55.663Z" transform="matrix(-0.848, 0.53, -0.53, -0.848, 936.538, 861.991)"/>
          <path id="Pfad_386_-_Kontur" data-name="Pfad 386 - Kontur" d="M26.442,68.163h0a36.907,36.907,0,0,1-9.546-1.27C3.352,63.264-6.368,52.707-10.576,44.769-20.064,27.651-13.259.961-11.8-4.213A15.557,15.557,0,0,1,3.117-15.5H4.846l2.48.583A15.519,15.519,0,0,1,18.038,4.2C15.584,13.1,14.414,25.912,16.677,30c.858,1.568,4.324,5.9,8.242,6.952a5.608,5.608,0,0,0,1.469.2A9.191,9.191,0,0,0,31.1,35.5,15.5,15.5,0,1,1,47.56,61.764,39.428,39.428,0,0,1,26.442,68.163Z" transform="matrix(-0.848, 0.53, -0.53, -0.848, 936.538, 861.991)"/>
          <path id="Pfad_401" data-name="Pfad 401" d="M165.449,0C127.7,0,55.452,35.3,20.788,79.137c-23.478,29.7-22.871,54.474-18.227,70.028A22.771,22.771,0,0,0,46.2,136.136c-2.814-9.422,4.057-20.837,10.317-28.753,28.189-35.655,89.794-62.959,109.5-61.827,21.6,1.23,64.538,6.856,127.625,16.721l17.256,2.7,13.631-14.962-20.819-9.231,2.912-22.58c-30.007-4.683-103.229-16.134-138-18.114C167.59.03,166.529,0,165.449,0Z" transform="translate(939.852 1058.344) rotate(171)"/>
          <path id="Pfad_401-2" data-name="Pfad 401" d="M8.015,353.411.008,91.271A16.911,16.911,0,0,1,24.166,75.482L88.611,106.1a16.908,16.908,0,0,0,22.56-8.076L152.738,9.718a16.906,16.906,0,0,1,22.444-8.13L197.75,12.111A16.917,16.917,0,0,1,205.9,34.64l-41.46,88.093a16.913,16.913,0,0,0,8.269,22.583l62.012,28.35a16.911,16.911,0,0,1,3.6,28.536L35.547,366.05A16.911,16.911,0,0,1,8.015,353.411" transform="translate(981.01 0) rotate(7)"/>
        </g>
      </g>
    </g>
  </g>
</svg>