<svg xmlns="http://www.w3.org/2000/svg" width="32" height="32" viewBox="0 0 32 32">
  <path id="customize-2" d="M15.444,3H4.778A1.778,1.778,0,0,0,3,4.778V15.444a1.778,1.778,0,0,0,1.778,1.778H15.444a1.778,1.778,0,0,0,1.778-1.778V4.778A1.778,1.778,0,0,0,15.444,3ZM33.222,3H22.556a1.778,1.778,0,0,0-1.778,1.778V15.444a1.778,1.778,0,0,0,1.778,1.778H33.222A1.778,1.778,0,0,0,35,15.444V4.778A1.778,1.778,0,0,0,33.222,3ZM15.444,20.778H4.778A1.778,1.778,0,0,0,3,22.556V33.222A1.778,1.778,0,0,0,4.778,35H15.444a1.778,1.778,0,0,0,1.778-1.778V22.556a1.778,1.778,0,0,0-1.778-1.778Zm14.222,1.778H26.111v3.556H22.556v3.556h3.556v3.556h3.556V29.667h3.556V26.111H29.667Z" transform="translate(-3 -3)" fill="#323232"/>
</svg>
