<svg xmlns="http://www.w3.org/2000/svg" width="51.317" height="49.77" viewBox="0 0 51.317 49.77">
  <g id="Gruppe_2297" data-name="Gruppe 2297" transform="translate(-833.222 -1402.23)">
    <path id="delete" d="M35.456,6.083A20.77,20.77,0,0,0,6.083,35.456,20.77,20.77,0,0,0,35.456,6.083Zm-5.7,20.8a2.028,2.028,0,1,1-2.869,2.868L20.77,23.638l-6.115,6.115a2.028,2.028,0,1,1-2.869-2.868L17.9,20.77l-6.115-6.115a2.028,2.028,0,1,1,2.868-2.868L20.77,17.9l6.115-6.115a2.028,2.028,0,1,1,2.868,2.868L23.638,20.77Zm0,0" transform="translate(843 1402.23)" fill="#323232"/>
    <path id="copyright" d="M9.778,0a9.778,9.778,0,1,0,9.778,9.778A9.789,9.789,0,0,0,9.778,0Zm0,16.889a7.111,7.111,0,1,1,7.111-7.111A7.119,7.119,0,0,1,9.778,16.889ZM12.419,11.4l1.442,1.339-.726.636a4.971,4.971,0,0,1-3.273,1.235A4.848,4.848,0,0,1,4.97,9.82,4.842,4.842,0,0,1,9.862,5.04a4.951,4.951,0,0,1,3.262,1.223l.7.612L12.442,8.259l-.613-.542a2.959,2.959,0,0,0-1.966-.723A2.887,2.887,0,0,0,6.924,9.82a2.892,2.892,0,0,0,2.938,2.837,2.963,2.963,0,0,0,1.966-.734Z" transform="translate(833.222 1432.444)" fill="#323232"/>
  </g>
</svg>
