<svg xmlns="http://www.w3.org/2000/svg" width="48.9" height="41.915" viewBox="0 0 48.9 41.915">
  <g id="customize-3" transform="translate(-2 -3.714)">
    <path id="Pfad_1272" data-name="Pfad 1272" d="M15.972,19.436a6.956,6.956,0,0,0-3.493-6.017V7.207a3.493,3.493,0,0,0-6.986,0v6.212a6.929,6.929,0,0,0,0,12.034V42.136a3.493,3.493,0,0,0,6.986,0V25.453a6.956,6.956,0,0,0,3.493-6.017Z" transform="translate(0 0)" fill="#323232"/>
    <path id="Pfad_1273" data-name="Pfad 1273" d="M21.05,23.894V7.207a3.493,3.493,0,0,0-6.986,0V23.894a6.929,6.929,0,0,0,0,12.034v6.208a3.493,3.493,0,1,0,6.986,0V35.928a6.929,6.929,0,0,0,0-12.034Z" transform="translate(8.893 0)" fill="#323232"/>
    <path id="Pfad_1274" data-name="Pfad 1274" d="M33.114,19.43a6.956,6.956,0,0,0-3.494-6.017v-6.2a3.493,3.493,0,0,0-6.985,0v6.2a6.929,6.929,0,0,0,0,12.034V42.134a3.493,3.493,0,0,0,6.985,0V25.448a6.956,6.956,0,0,0,3.494-6.017Z" transform="translate(17.786 0.002)" fill="#323232"/>
  </g>
</svg>
