<svg xmlns="http://www.w3.org/2000/svg" width="34.177" height="32.038" viewBox="0 0 34.177 32.038">
  <g id="insert-picture-icon" transform="translate(0 -9.35)">
    <path id="Pfad_1267" data-name="Pfad 1267" d="M30.313,9.35H3.865A3.869,3.869,0,0,0,0,13.217V37.524a3.867,3.867,0,0,0,3.865,3.863H30.313a3.866,3.866,0,0,0,3.864-3.863V13.217A3.868,3.868,0,0,0,30.313,9.35ZM22.1,15.1a3.734,3.734,0,1,1-3.734,3.734A3.734,3.734,0,0,1,22.1,15.1Zm7,22.713H5.61a1.056,1.056,0,0,1-1.026-1.666l6.407-12.691a1.079,1.079,0,0,1,1.976-.184l6.443,8.42a1.58,1.58,0,0,0,2.447.155l1.576-1.6a1.5,1.5,0,0,1,2.383.2l4.081,5.83C30.488,37.129,30.132,37.814,29.1,37.814Z" transform="translate(0)" fill="#323232"/>
  </g>
</svg>
