<svg xmlns="http://www.w3.org/2000/svg" width="43.639" height="43.639" viewBox="0 0 43.639 43.639">
  <g id="order-tracking" transform="translate(-10 -10)">
    <path id="Pfad_1278" data-name="Pfad 1278" d="M49.093,70.909a4.543,4.543,0,0,0-4.163,2.727H36.94a5.424,5.424,0,0,0-10.242,0h-7.99a4.546,4.546,0,1,0,0,3.636H26.7a5.424,5.424,0,0,0,10.242,0h7.99a4.544,4.544,0,1,0,4.163-6.364ZM31.819,77.273a1.818,1.818,0,1,1,1.818-1.818A1.817,1.817,0,0,1,31.819,77.273Z" transform="translate(0 -27.271)" fill="#323232"/>
    <path id="Pfad_1279" data-name="Pfad 1279" d="M39.395,10a12.727,12.727,0,0,0-9,21.727l9,8.274,9-8.278a12.726,12.726,0,0,0-9-21.723Zm0,18.183a5.455,5.455,0,1,1,5.455-5.455A5.456,5.456,0,0,1,39.395,28.183Z" transform="translate(-7.575)" fill="#323232"/>
  </g>
</svg>
