<svg xmlns="http://www.w3.org/2000/svg" width="332" height="136" viewBox="0 0 332 136">
  <g id="Gruppe_4623" data-name="Gruppe 4623" transform="translate(-23690.465 4301.281)">
    <path id="Rechteck_814" data-name="Rechteck 814" d="M5,0H327a5,5,0,0,1,5,5V136a0,0,0,0,1,0,0H0a0,0,0,0,1,0,0V5A5,5,0,0,1,5,0Z" transform="translate(23690.465 -4301.281)" fill="#f6d455"/>
    <g id="Gruppe_4625" data-name="Gruppe 4625" transform="translate(6.961 -1.676)">
      <g id="Gruppe_4619" data-name="Gruppe 4619" transform="translate(23807.18 -4287.633)">
        <path id="Pfad_9399" data-name="Pfad 9399" d="M37.34,1.868A10.795,10.795,0,0,0,32.535.29C31.411.2,30.217.136,29.057.093S26.773.025,25.789.013,23.961,0,23.364,0s-.949.007-.949.007S22.063,0,21.466,0s-1.441,0-2.425.012-2.108.036-3.268.08S13.419.2,12.3.29a10.81,10.81,0,0,0-7.212,3.6A20.034,20.034,0,0,0,0,16.05q.228.574.433,1.156t.387,1.172q.182.59.34,1.186t.293,1.2l20.962-1.1L40.3,16.389Z" transform="translate(28.367 1.085)" fill="#71a2ff"/>
        <path id="Pfad_9400" data-name="Pfad 9400" d="M0,0A17.132,17.132,0,0,1,1.258,2.218,26.722,26.722,0,0,1,2.864,6.511a35,35,0,0,1,1.161,6.41,45.427,45.427,0,0,1-.075,8.571l2.8.162a50.11,50.11,0,0,0,.183-7.542,40.388,40.388,0,0,0-.777-6.078A33.071,33.071,0,0,0,4.833,3.388,26.342,26.342,0,0,0,3.395.137C3.109.12,2.822.105,2.536.091S1.962.065,1.678.054,1.11.033.83.024Z" transform="translate(55.953 1.132)" fill="#397eff"/>
        <path id="Pfad_9401" data-name="Pfad 9401" d="M37.379,0a19.671,19.671,0,0,1-3.292,4.89,24.152,24.152,0,0,1-6.58,5.023,36.822,36.822,0,0,1-10.978,3.612A68.354,68.354,0,0,1,.04,14.181q-.046.783-.039,1.567t.064,1.565q.058.781.167,1.557T.5,20.414l21.953-1.273,21.953,1.273a23.735,23.735,0,0,0,.464-6.2,20.145,20.145,0,0,0-.981-5.119,19.857,19.857,0,0,0-1.878-4.056,20.8,20.8,0,0,0-2.227-3.013q-.262-.3-.545-.571T38.657.925q-.3-.254-.622-.485T37.379,0Z" transform="translate(28.328 2.954)" fill="#397eff"/>
        <path id="Pfad_9402" data-name="Pfad 9402" d="M0,0H13.111V15.645H0Z" transform="translate(44.227 44.718)" fill="#c66b76"/>
        <path id="Pfad_9403" data-name="Pfad 9403" d="M.731,9.135c.556-.405,1.4-1,2.479-1.707s2.4-1.53,3.916-2.391S10.347,3.276,12.2,2.411A60.208,60.208,0,0,1,18.166,0l-.883,5.512S16.7,5.686,15.74,6s-2.29.781-3.786,1.359S8.8,8.633,7.189,9.41A32.631,32.631,0,0,0,2.7,11.965a1.718,1.718,0,0,1-1.718.166L.95,12.114a1.753,1.753,0,0,1-.219-2.98Z" transform="translate(7.412 23.015)" fill="#c66b76"/>
        <path id="Pfad_9404" data-name="Pfad 9404" d="M.194,1.744A23.761,23.761,0,0,0,.9,11.236l3.429-1.17s-.069-.377-.154-1.005-.188-1.508-.257-2.514a29.263,29.263,0,0,1-.051-3.271A15.377,15.377,0,0,1,4.33,0Z" transform="translate(38.959 62.348)" fill="#993c4e"/>
        <path id="Pfad_9405" data-name="Pfad 9405" d="M0,2.859s.014.3.065.818S.2,4.929.348,5.8.7,7.666.978,8.717a23.134,23.134,0,0,0,1.111,3.218l3.04-1.679s-.091-.366-.222-.983-.3-1.487-.464-2.494-.313-2.151-.4-3.319A23.493,23.493,0,0,1,4,0Z" transform="translate(29.629 66.7)" fill="#993c4e"/>
        <path id="Pfad_9406" data-name="Pfad 9406" d="M0,4.077s.034.176.116.505S.327,5.393.518,6s.442,1.352.768,2.2S2.012,10,2.5,11.039l3.5-2.423s-.13-.259-.33-.717S5.2,6.784,4.922,5.986A28.427,28.427,0,0,1,4.1,3.235,21.512,21.512,0,0,1,3.549,0Z" transform="translate(20.619 73.706)" fill="#993c4e"/>
        <path id="Pfad_9407" data-name="Pfad 9407" d="M.532,20.079s.719-.823,2.089-2.1A55.759,55.759,0,0,1,18.109,7.848,48.8,48.8,0,0,1,30.7,4.261V0s-1.117.113-2.979.5A54.472,54.472,0,0,0,20.265,2.6a51.96,51.96,0,0,0-9.7,4.652A43.206,43.206,0,0,0,.858,15.383a3.4,3.4,0,0,0-.819,2.751q.038.248.088.495t.112.49q.062.243.135.484t.158.477Z" transform="translate(20.088 57.704)" fill="#c66b76"/>
        <path id="Pfad_9408" data-name="Pfad 9408" d="M0,11.567s.634-.545,1.8-1.406,2.876-2.04,5.02-3.308a61.922,61.922,0,0,1,7.647-3.843A52.457,52.457,0,0,1,24.158,0V19.048H7.018s-.275-.174-.728-.507-1.084-.828-1.8-1.469A24.279,24.279,0,0,1,2.2,14.721,19.892,19.892,0,0,1,0,11.567Z" transform="translate(26.625 79.434)" fill="#c66b76"/>
        <path id="Pfad_9409" data-name="Pfad 9409" d="M0,19.048H5.272V0Q4.6.137,3.94.292T2.617.621Q1.958.794,1.3.985t-1.3.4Z" transform="translate(45.51 79.434)" fill="#993c4e"/>
        <path id="Pfad_9410" data-name="Pfad 9410" d="M4.776,23.2q-.762-.923-1.444-1.9T2.051,19.286q-.6-1.032-1.112-2.111T0,14.976A24.9,24.9,0,0,1,1.76,13.141,46.272,46.272,0,0,1,7,8.834a52.689,52.689,0,0,1,8.654-4.98A54.091,54.091,0,0,1,27.665,0V10.3L22.393,13.3c-1.167.395-2.478.88-3.882,1.468s-2.9,1.28-4.438,2.087a50.515,50.515,0,0,0-4.682,2.785A43.543,43.543,0,0,0,4.776,23.2Z" transform="translate(23.119 69.769)" fill="#d2e8ff"/>
        <path id="Pfad_9411" data-name="Pfad 9411" d="M4.136,1.744A23.762,23.762,0,0,1,4.32,4.135a23.762,23.762,0,0,1-.057,2.391,23.761,23.761,0,0,1-.3,2.373,23.76,23.76,0,0,1-.536,2.337L0,10.066s.069-.377.154-1.005S.343,7.553.411,6.547A29.264,29.264,0,0,0,.463,3.276,15.377,15.377,0,0,0,0,0Z" transform="translate(58.275 62.348)" fill="#993c4e"/>
        <path id="Pfad_9412" data-name="Pfad 9412" d="M5.13,2.859s-.014.3-.065.818S4.928,4.929,4.784,5.8s-.347,1.869-.63,2.92a23.135,23.135,0,0,1-1.111,3.218L0,10.255s.091-.366.222-.983.3-1.487.464-2.494.313-2.151.4-3.319A23.493,23.493,0,0,0,1.136,0Z" transform="translate(66.807 66.7)" fill="#993c4e"/>
        <path id="Pfad_9413" data-name="Pfad 9413" d="M6.008,4.077s-.034.176-.116.505S5.681,5.393,5.49,6s-.442,1.352-.768,2.2S4,10,3.507,11.039L0,8.616s.13-.259.33-.717S.8,6.784,1.086,5.986a28.428,28.428,0,0,0,.827-2.752A21.513,21.513,0,0,0,2.459,0Z" transform="translate(74.939 73.706)" fill="#993c4e"/>
        <path id="Pfad_9414" data-name="Pfad 9414" d="M30.164,20.079s-.719-.823-2.089-2.1a54.615,54.615,0,0,0-5.995-4.818,55.084,55.084,0,0,0-9.494-5.314A48.8,48.8,0,0,0,0,4.261V0S1.117.113,2.979.5A54.473,54.473,0,0,1,10.431,2.6a51.96,51.96,0,0,1,9.7,4.652,43.206,43.206,0,0,1,9.712,8.128,3.4,3.4,0,0,1,.819,2.751q-.038.248-.088.495t-.112.49q-.062.243-.135.484T30.164,20.079Z" transform="translate(50.781 57.704)" fill="#c66b76"/>
        <path id="Pfad_9415" data-name="Pfad 9415" d="M24.158,11.567s-.634-.545-1.8-1.406-2.876-2.04-5.02-3.308A61.922,61.922,0,0,0,9.687,3.011,52.457,52.457,0,0,0,0,0V19.048H17.141s.275-.174.728-.507,1.084-.828,1.8-1.469a24.279,24.279,0,0,0,2.289-2.351A19.893,19.893,0,0,0,24.158,11.567Z" transform="translate(50.781 79.434)" fill="#c66b76"/>
        <path id="Pfad_9416" data-name="Pfad 9416" d="M5.272,1.386q-.649-.209-1.3-.4T2.655.621Q2,.447,1.332.292T0,0V19.048H5.272Z" transform="translate(50.781 79.434)" fill="#993c4e"/>
        <path id="Pfad_9417" data-name="Pfad 9417" d="M22.889,23.2q.762-.923,1.444-1.9t1.281-2.013q.6-1.032,1.112-2.111t.937-2.2A24.9,24.9,0,0,0,25.9,13.141a46.272,46.272,0,0,0-5.235-4.307,52.689,52.689,0,0,0-8.654-4.98A54.091,54.091,0,0,0,0,0V10.151L5.272,13.3c1.167.4,2.478.88,3.882,1.469s2.9,1.28,4.438,2.088a50.53,50.53,0,0,1,4.682,2.785A43.545,43.545,0,0,1,22.889,23.2Z" transform="translate(50.781 69.769)" fill="#d2e8ff"/>
        <path id="Pfad_9418" data-name="Pfad 9418" d="M17.437,9.135c-.557-.405-1.4-1-2.48-1.707s-2.4-1.53-3.915-2.391S7.82,3.276,5.965,2.411A60.192,60.192,0,0,0,0,0L.885,5.512s.584.174,1.542.493,2.29.781,3.786,1.359S9.367,8.633,10.979,9.41a32.631,32.631,0,0,1,4.484,2.556,1.718,1.718,0,0,0,1.718.166l.037-.017a1.753,1.753,0,0,0,.219-2.98Z" transform="translate(75.986 23.015)" fill="#c66b76"/>
        <path id="Pfad_9419" data-name="Pfad 9419" d="M61.094,3.454q-.752-.24-1.511-.459T58.06,2.58q-.764-.2-1.534-.371T54.98,1.882a4.974,4.974,0,0,1-.969.126,5.028,5.028,0,0,1-.992-.07A5.711,5.711,0,0,1,52,1.666a7.128,7.128,0,0,1-1.039-.483Q49.092.911,47.212.7T43.446.343Q41.56.195,39.67.109T35.888,0Q34,.023,32.106.109T28.33.343Q26.444.491,24.564.7t-3.753.482a4.289,4.289,0,0,1-.931.52,4.329,4.329,0,0,1-.985.266,5.3,5.3,0,0,1-1.031.048A7.368,7.368,0,0,1,16.8,1.883q-.775.152-1.545.327t-1.534.371q-.764.2-1.523.415t-1.511.459s-.512.46-1.319,1.345A37.866,37.866,0,0,0,6.275,8.691,40.569,40.569,0,0,0,2.72,14.919,37.921,37.921,0,0,0,0,23.271a15.568,15.568,0,0,0,2,1.3,34.861,34.861,0,0,0,6.19,2.7,52.6,52.6,0,0,0,10.677,2.294,75.877,75.877,0,0,0,15.461.085c7.012-.633,12.191-2.587,16.016-5.162A23.476,23.476,0,0,0,58.228,15.6a26.841,26.841,0,0,0,2.627-8.411A21.346,21.346,0,0,0,61.094,3.454Z" transform="translate(14.895 19.561)" fill="#71a2ff"/>
        <path id="Pfad_9420" data-name="Pfad 9420" d="M69.96,42.717a40.471,40.471,0,0,0,3.188-17.566,37.258,37.258,0,0,0-3.3-13.457A40.549,40.549,0,0,0,64.566,3.08,28,28,0,0,0,61.8.045L61.662,0a50.087,50.087,0,0,1-6.926,6.659,58.974,58.974,0,0,1-12.1,7.424,68.27,68.27,0,0,1-17.823,5.348,90.054,90.054,0,0,1-24.1.43A36.548,36.548,0,0,0,.063,24.9,37.173,37.173,0,0,0,.151,30.4a39.849,39.849,0,0,0,1,5.95,45.3,45.3,0,0,0,2.086,6.366,24.67,24.67,0,0,1,2.074-2.392,41.186,41.186,0,0,1,6.237-5.262A42.975,42.975,0,0,1,21.968,29.8,44.739,44.739,0,0,1,36.6,27.41,44.739,44.739,0,0,1,51.228,29.8,42.975,42.975,0,0,1,61.65,35.064a41.186,41.186,0,0,1,6.237,5.262,24.669,24.669,0,0,1,2.074,2.392Z" transform="translate(14.186 22.97)" fill="#397eff"/>
        <path id="Pfad_9424" data-name="Pfad 9424" d="M4.015.7Q3.513.6,3.009.5T2,.323Q1.5.236,1,.155T0,0Q.915,1.176,1.741,2.413T3.3,4.942q.734,1.292,1.374,2.635t1.181,2.731a45.047,45.047,0,0,1,1.962,6.214A43.972,43.972,0,0,1,8.843,22.9a45.29,45.29,0,0,1,.088,6.517,49.048,49.048,0,0,1-.85,6.642q.336.206.66.414t.638.416q.314.208.616.417t.594.417a52,52,0,0,0,1.136-8.774,49.032,49.032,0,0,0-.283-7.776,47.928,47.928,0,0,0-1.259-6.662A46.77,46.77,0,0,0,8.391,9.076Q7.954,7.975,7.46,6.9T6.419,4.775Q5.871,3.727,5.27,2.707T4.015.7Z" transform="translate(65.859 20.744)" fill="#397eff"/>
        <path id="Pfad_9425" data-name="Pfad 9425" d="M11.771,0q-.5.074-1,.155t-1,.168Q9.265.41,8.761.5T7.755.7Q7.1,1.688,6.5,2.708T5.351,4.776Q4.8,5.824,4.31,6.9T3.379,9.077A46.789,46.789,0,0,0,1.587,14.51,47.942,47.942,0,0,0,.328,21.172a49.036,49.036,0,0,0-.283,7.776,51.987,51.987,0,0,0,1.136,8.774q.291-.208.594-.417t.616-.417q.314-.208.638-.416t.66-.415a49.048,49.048,0,0,1-.85-6.642A45.29,45.29,0,0,1,2.928,22.9a43.972,43.972,0,0,1,1.025-6.374A45.048,45.048,0,0,1,5.914,10.31Q6.455,8.921,7.1,7.578T8.469,4.943Q9.2,3.65,10.029,2.413T11.771,0Z" transform="translate(23.936 20.745)" fill="#397eff"/>
        <path id="Ellipse_7982" data-name="Ellipse 7982" d="M1.087,0A1.084,1.084,0,1,1,.664.085,1.084,1.084,0,0,1,1.087,0Z" transform="translate(28.543 84.448)" fill="#96aef4"/>
        <path id="Ellipse_7983" data-name="Ellipse 7983" d="M1.089,0A1.084,1.084,0,1,1,.666.085,1.084,1.084,0,0,1,1.089,0Z" transform="translate(35.863 79.434)" fill="#96aef4"/>
        <path id="Ellipse_7984" data-name="Ellipse 7984" d="M1.087,0A1.084,1.084,0,1,1,.664.085,1.084,1.084,0,0,1,1.087,0Z" transform="translate(70.848 84.448)" fill="#96aef4"/>
        <path id="Ellipse_7985" data-name="Ellipse 7985" d="M1.089,0A1.084,1.084,0,1,1,.666.085,1.084,1.084,0,0,1,1.089,0Z" transform="translate(63.525 79.434)" fill="#96aef4"/>
        <path id="Pfad_9426" data-name="Pfad 9426" d="M0,5.32Q.651,5.15,1.306,5t1.315-.284q.659-.132,1.322-.246t1.329-.208V0q-.667.084-1.33.19T2.619.424Q1.96.552,1.3.7T0,1.023Z" transform="translate(45.51 57.704)" fill="#993c4e"/>
        <path id="Pfad_9427" data-name="Pfad 9427" d="M5.272,1.023Q4.622.851,3.967.7T2.653.424Q1.994.3,1.33.19T0,0V4.261q.666.095,1.329.208t1.322.246Q3.31,4.847,3.966,5t1.306.321Z" transform="translate(50.781 57.704)" fill="#993c4e"/>
        <path id="Pfad_9428" data-name="Pfad 9428" d="M5.272,1.316Q4.647,1.126,4,.948T2.7.605Q2.046.44,1.37.288T0,0V11.825q.67.144,1.335.309t1.324.349q.659.185,1.313.39t1.3.43Z" transform="translate(50.781 69.77)" fill="#96aef4"/>
        <path id="Pfad_9429" data-name="Pfad 9429" d="M0,13.3q.647-.225,1.3-.43t1.313-.39q.659-.185,1.324-.349t1.335-.309V0Q4.578.136,3.9.288T2.568.605q-.659.165-1.3.343T0,1.316Z" transform="translate(45.51 69.769)" fill="#96aef4"/>
        <path id="Pfad_9430" data-name="Pfad 9430" d="M2.627,0A2.622,2.622,0,0,1,5.252,2.624V41.6H0V2.624A2.622,2.622,0,0,1,2.627,0Z" transform="translate(48.156 55.493)" fill="#c66b76"/>
        <path id="Pfad_9431" data-name="Pfad 9431" d="M97.771,4.552a5.52,5.52,0,0,1-1.086-.1,5.523,5.523,0,0,1-1.036-.306,5.523,5.523,0,0,1-.957-.5,5.522,5.522,0,0,1-.848-.686L90.9,0l-2.94,2.961a5.629,5.629,0,0,1-1.844,1.194,5.654,5.654,0,0,1-2.086.4,5.654,5.654,0,0,1-2.086-.4A5.629,5.629,0,0,1,80.1,2.961L77.163,0l-2.94,2.961A5.629,5.629,0,0,1,72.38,4.155a5.654,5.654,0,0,1-2.086.4,5.654,5.654,0,0,1-2.086-.4,5.629,5.629,0,0,1-1.844-1.194L63.426,0,60.487,2.959a5.629,5.629,0,0,1-1.844,1.194,5.654,5.654,0,0,1-2.085.4,5.654,5.654,0,0,1-2.085-.4,5.629,5.629,0,0,1-1.844-1.194L49.69,0,46.753,2.959a5.63,5.63,0,0,1-1.844,1.194,5.654,5.654,0,0,1-2.085.4,5.654,5.654,0,0,1-2.085-.4,5.629,5.629,0,0,1-1.844-1.194L35.956,0,33.019,2.959a5.629,5.629,0,0,1-1.844,1.194,5.654,5.654,0,0,1-2.086.4A5.654,5.654,0,0,1,27,4.153,5.629,5.629,0,0,1,25.16,2.959L22.224,0,19.286,2.959a5.629,5.629,0,0,1-1.844,1.194,5.654,5.654,0,0,1-2.086.4,5.654,5.654,0,0,1-2.086-.4,5.629,5.629,0,0,1-1.844-1.194L8.489,0,5.551,2.959a5.521,5.521,0,0,1-.848.686,5.523,5.523,0,0,1-.957.5,5.523,5.523,0,0,1-1.036.306,5.522,5.522,0,0,1-1.086.1H0V9.308H99.394V4.559Z" transform="translate(1.086 92.435)" fill="#74a9f7"/>
        <g id="Gruppe_4618" data-name="Gruppe 4618" transform="translate(38.727 1.697)">
          <path id="Pfad_9435" data-name="Pfad 9435" d="M3.779.122A20.093,20.093,0,0,0,2.263,2.844,23.332,23.332,0,0,0,.882,6.716a27.053,27.053,0,0,0-.811,5.05,33.083,33.083,0,0,0,.194,6.257l2.3-.236a30.015,30.015,0,0,1-.074-7.141,23.177,23.177,0,0,1,1.228-5.3,18.816,18.816,0,0,1,1.7-3.525A13.344,13.344,0,0,1,6.768,0Z" fill="#397eff"/>
        </g>
        <path id="Pfad_9436" data-name="Pfad 9436" d="M34.406,36.584A1.086,1.086,0,0,0,35.493,35.5V29.3c1.134.355,2.457.809,3.9,1.378s3.014,1.255,4.639,2.073a50.232,50.232,0,0,1,4.982,2.866,42.793,42.793,0,0,1,4.931,3.759,1.085,1.085,0,0,0,.722.274h.063l.021,0a1.088,1.088,0,0,0,.754-.393Q56.3,38.3,57,37.292t1.323-2.077q.619-1.064,1.15-2.177t.971-2.267c.458-.973.841-1.875,1.158-2.687s.57-1.535.769-2.151.343-1.125.444-1.51.158-.645.183-.764q.088-.251.164-.506t.141-.513q.065-.258.117-.519t.093-.524a4.465,4.465,0,0,0-1.078-3.635,43.128,43.128,0,0,0-7.271-6.533,50.041,50.041,0,0,0-7.577-4.447A56.2,56.2,0,0,0,40.67,4.237a54.78,54.78,0,0,0-5.291-1.424,3.706,3.706,0,0,0-7.194,0,54.768,54.768,0,0,0-5.292,1.424,56.2,56.2,0,0,0-6.917,2.744A50.041,50.041,0,0,0,8.4,11.429a43.129,43.129,0,0,0-7.271,6.532A4.466,4.466,0,0,0,.05,21.6q.041.263.093.524t.117.519q.065.258.141.513t.164.506c.025.119.082.379.183.764s.245.894.444,1.51.451,1.339.769,2.151.7,1.714,1.158,2.687q.44,1.154.971,2.267t1.15,2.177q.619,1.064,1.323,2.077t1.49,1.966a1.088,1.088,0,0,0,.754.393h.085a1.085,1.085,0,0,0,.722-.274,42.87,42.87,0,0,1,4.917-3.75,50.128,50.128,0,0,1,4.97-2.863c1.623-.818,3.191-1.5,4.641-2.076s2.78-1.029,3.929-1.388v6.2a1.087,1.087,0,1,0,2.174,0V3.712a1.537,1.537,0,1,1,3.075,0V35.5a1.086,1.086,0,0,0,1.087,1.088ZM4.436,28.392q-.247-.571-.473-1.151t-.429-1.167q-.2-.588-.385-1.183t-.341-1.2c.084-.088.182-.19.295-.3s.239-.241.379-.38.294-.288.462-.449.349-.332.544-.512q.136.621.3,1.235t.35,1.221q.188.607.4,1.205T5.988,26.9q-.235.214-.449.415t-.408.388q-.194.187-.367.36t-.327.33Zm3.3-3Q7.5,24.782,7.3,24.164t-.368-1.246q-.168-.627-.3-1.263t-.24-1.278q.366-.306.763-.627t.826-.653q.428-.332.888-.675t.95-.692q.1.659.221,1.312t.278,1.3q.153.647.335,1.287t.391,1.272q-.469.324-.911.643t-.856.632q-.414.312-.8.616t-.741.6Zm5.191-3.729q-.2-.648-.365-1.3t-.3-1.319q-.137-.663-.244-1.332t-.183-1.342l.417-.269.424-.268.433-.268q.218-.134.442-.268.049.7.119,1.395t.162,1.39q.092.694.205,1.384t.248,1.378l-.347.206-.341.206-.335.206-.33.206Zm3.357-1.944q-.129-.7-.232-1.4t-.18-1.407q-.077-.7-.127-1.412t-.075-1.416q.381-.206.772-.408t.792-.4q.4-.2.811-.394t.829-.386q-.006.714.029,1.426t.11,1.421q.075.709.19,1.412t.27,1.4q-.42.189-.83.381t-.808.388q-.4.2-.786.394t-.765.4Zm5.224-2.435q-.143-.706-.241-1.42t-.153-1.43q-.054-.717-.064-1.437t.024-1.44l.414-.163.418-.16.422-.158.426-.155q-.032.725-.033,1.45t.03,1.449q.031.724.093,1.446T23,16.707l-.378.141-.375.143-.372.144-.369.146Zm3.6-1.3q-.088-.722-.139-1.447T24.9,13.083q-.014-.726.009-1.453t.084-1.452q.374-.114.754-.222t.764-.21q.385-.1.775-.2t.785-.188v5.75q-.382.1-.759.207t-.747.214q-.371.109-.736.222t-.724.23ZM2.758,19.4a40.922,40.922,0,0,1,6.694-6.053A47.453,47.453,0,0,1,16.46,9.159a53.593,53.593,0,0,1,6.485-2.652c1.982-.664,3.737-1.127,5.125-1.442V7.129a50.98,50.98,0,0,0-9.228,2.978,55.176,55.176,0,0,0-7.486,3.934,56.944,56.944,0,0,0-5.6,4c-1.536,1.245-2.733,2.351-3.567,3.171A2.3,2.3,0,0,1,2.759,19.4ZM9.039,37q-.564-.74-1.076-1.516t-.971-1.583q-.458-.808-.862-1.645t-.75-1.7c.459-.493,1.287-1.338,2.476-2.385a48.2,48.2,0,0,1,4.639-3.6,52.306,52.306,0,0,1,15.573-7.22V27.03c-1.125.336-2.454.773-3.921,1.327s-3.071,1.226-4.745,2.034a53.556,53.556,0,0,0-5.169,2.847A46.264,46.264,0,0,0,9.04,37Zm50.087-8.613q-.154-.157-.327-.33t-.367-.36q-.194-.187-.408-.388t-.45-.415q.239-.589.452-1.188t.4-1.205q.188-.607.35-1.221t.3-1.236q.292.271.544.512t.462.449q.21.208.379.38c.112.114.211.216.295.3q-.159.6-.341,1.2t-.385,1.182q-.2.587-.429,1.167t-.472,1.151Zm-3.3-3q-.356-.293-.742-.6t-.8-.616q-.414-.312-.856-.632T52.52,22.9q.209-.632.391-1.272t.335-1.287q.153-.647.278-1.3t.222-1.312q.49.349.949.692t.888.675q.428.332.826.653t.764.627q-.1.642-.24,1.277t-.3,1.263q-.168.627-.368,1.246T55.83,25.39Zm-5.191-3.729-.33-.206-.335-.206-.341-.206-.347-.206q.135-.687.248-1.378t.2-1.384q.092-.694.162-1.39t.119-1.395q.223.134.442.268l.433.268.424.269.417.269q-.076.673-.183,1.342t-.244,1.332q-.137.663-.3,1.319t-.364,1.3ZM47.28,19.717q-.377-.2-.765-.4t-.787-.393q-.4-.2-.809-.388t-.831-.383q.154-.7.268-1.4t.189-1.413q.075-.709.11-1.421t.03-1.426q.419.191.83.386t.812.394q.4.2.793.4t.773.408q-.024.709-.074,1.416t-.127,1.412q-.077.7-.179,1.406t-.232,1.4Zm-4.789-8.162q.033.72.022,1.44t-.065,1.437q-.055.717-.153,1.43t-.24,1.42l-.367-.146-.371-.144-.375-.142-.378-.14q.094-.72.156-1.442t.093-1.447q.031-.724.03-1.45t-.033-1.45l.426.155.422.157.418.16Zm-3.919-1.378q.059.725.082,1.451t.009,1.452q-.014.726-.065,1.451t-.138,1.447q-.359-.116-.724-.229T37,15.528q-.371-.109-.748-.214t-.759-.207V9.358q.395.091.785.188t.775.2q.385.1.765.21t.755.222ZM54.524,37a46.222,46.222,0,0,0-5.212-3.776,53.725,53.725,0,0,0-5.185-2.851c-1.678-.808-3.282-1.479-4.744-2.031s-2.782-.986-3.89-1.318V17.359a52.3,52.3,0,0,1,15.574,7.218,48.17,48.17,0,0,1,4.639,3.6c1.189,1.047,2.016,1.892,2.475,2.385q-.346.864-.75,1.7T56.571,33.9q-.458.808-.97,1.583T54.524,37Zm6.281-17.6a2.3,2.3,0,0,1,.568,1.811c-.834-.82-2.032-1.927-3.567-3.171a56.954,56.954,0,0,0-5.6-4,55.179,55.179,0,0,0-7.486-3.934,50.98,50.98,0,0,0-9.228-2.978V5.064c1.389.316,3.144.779,5.125,1.443A53.612,53.612,0,0,1,47.1,9.159a47.451,47.451,0,0,1,7.008,4.188A40.909,40.909,0,0,1,60.805,19.4Z" transform="translate(19 54.406)" fill="#242424"/>
        <path id="Pfad_9437" data-name="Pfad 9437" d="M100.482,4.559l-1.627-.006a4.458,4.458,0,0,1-.872-.078,4.46,4.46,0,0,1-1.6-.644,4.458,4.458,0,0,1-.683-.548L92.756.321a1.118,1.118,0,0,0-1.542,0L88.274,3.28a4.546,4.546,0,0,1-1.483.953,4.566,4.566,0,0,1-1.674.318,4.566,4.566,0,0,1-1.674-.318,4.547,4.547,0,0,1-1.483-.953L79.019.321a1.118,1.118,0,0,0-1.543,0L74.537,3.28a4.546,4.546,0,0,1-1.483.953,4.566,4.566,0,0,1-1.674.318,4.566,4.566,0,0,1-1.674-.318,4.546,4.546,0,0,1-1.483-.953L65.283.321a1.118,1.118,0,0,0-1.543,0L60.8,3.28a4.546,4.546,0,0,1-1.483.953,4.565,4.565,0,0,1-1.675.318,4.565,4.565,0,0,1-1.675-.318,4.546,4.546,0,0,1-1.483-.953L51.548.321a1.118,1.118,0,0,0-1.543,0L47.068,3.28a4.545,4.545,0,0,1-1.483.953,4.565,4.565,0,0,1-1.675.318,4.565,4.565,0,0,1-1.675-.318,4.546,4.546,0,0,1-1.483-.953L37.815.321a1.118,1.118,0,0,0-1.543,0L33.334,3.28a4.546,4.546,0,0,1-1.483.953,4.566,4.566,0,0,1-1.675.318A4.566,4.566,0,0,1,28.5,4.233a4.547,4.547,0,0,1-1.483-.953L24.083.321a1.087,1.087,0,0,0-1.543,0L19.6,3.28a4.547,4.547,0,0,1-1.483.953,4.566,4.566,0,0,1-1.675.318,4.566,4.566,0,0,1-1.675-.318,4.547,4.547,0,0,1-1.483-.953L10.348.321a1.118,1.118,0,0,0-1.543,0L5.867,3.28a4.459,4.459,0,0,1-.683.548,4.461,4.461,0,0,1-1.6.645,4.459,4.459,0,0,1-.872.078H1.087a1.087,1.087,0,1,0,0,2.174H2.71A6.644,6.644,0,0,0,4.01,6.6a6.647,6.647,0,0,0,2.385-.97A6.644,6.644,0,0,0,7.41,4.812L9.577,2.63l2.167,2.183a6.712,6.712,0,0,0,2.2,1.435,6.742,6.742,0,0,0,2.5.478,6.742,6.742,0,0,0,2.5-.478,6.712,6.712,0,0,0,2.2-1.435L23.311,2.63l2.163,2.182a6.646,6.646,0,0,0,1.016.821,6.649,6.649,0,0,0,2.385.971,6.646,6.646,0,0,0,1.3.122,6.644,6.644,0,0,0,1.3-.121,6.647,6.647,0,0,0,2.385-.97,6.644,6.644,0,0,0,1.015-.821L37.041,2.63l2.167,2.183a6.712,6.712,0,0,0,2.2,1.435,6.742,6.742,0,0,0,2.5.478,6.742,6.742,0,0,0,2.5-.478,6.712,6.712,0,0,0,2.2-1.435L50.775,2.63l2.167,2.183a6.712,6.712,0,0,0,2.2,1.435,6.742,6.742,0,0,0,2.5.478,6.742,6.742,0,0,0,2.5-.478,6.712,6.712,0,0,0,2.2-1.435L64.51,2.63l2.169,2.184a6.644,6.644,0,0,0,1.015.821,6.647,6.647,0,0,0,2.384.97,6.644,6.644,0,0,0,1.3.121,6.646,6.646,0,0,0,1.3-.121,6.648,6.648,0,0,0,2.385-.97,6.646,6.646,0,0,0,1.015-.821L78.246,2.63l2.168,2.184a6.644,6.644,0,0,0,1.015.821,6.647,6.647,0,0,0,2.384.97,7.017,7.017,0,0,0,2.6,0,6.648,6.648,0,0,0,2.385-.97,6.646,6.646,0,0,0,1.015-.821L91.982,2.63l2.17,2.184a6.644,6.644,0,0,0,1.014.82,6.646,6.646,0,0,0,2.382.97,6.643,6.643,0,0,0,1.3.122l1.623.006h0a1.087,1.087,0,1,0,0-2.174Z" transform="translate(0 91.348)" fill="#242424"/>
        <path id="Pfad_9439" data-name="Pfad 9439" d="M87.736,31.272c-.629-.458-1.524-1.087-2.644-1.818s-2.465-1.564-4-2.43S77.851,25.258,75.99,24.4a61.469,61.469,0,0,0-5.977-2.408H70q-.265-.086-.534-.17t-.539-.164q-.271-.081-.544-.159t-.548-.153a23.389,23.389,0,0,0,0-5.64,20.788,20.788,0,0,0-3.038-8.52A22.073,22.073,0,0,0,62.6,4.259,11.844,11.844,0,0,0,54.664.295c-1.106-.089-2.272-.152-3.4-.2S49.025.029,48.051.015,46.227,0,45.6,0s-1.041.007-1.141.008S43.946,0,43.315,0s-1.479,0-2.454.015S38.786.054,37.653.1s-2.3.107-3.4.2a11.844,11.844,0,0,0-7.937,3.961,22.05,22.05,0,0,0-2.188,2.916,20.795,20.795,0,0,0-3.039,8.52,23.393,23.393,0,0,0,0,5.643q-.275.076-.549.154t-.544.159q-.271.081-.539.164t-.534.17H18.9a61.476,61.476,0,0,0-5.977,2.408c-1.861.862-3.577,1.761-5.107,2.627s-2.876,1.7-4,2.43-2.014,1.36-2.643,1.818A2.84,2.84,0,0,0,.012,33.83,2.77,2.77,0,0,0,1.549,36.1l.058.028a2.734,2.734,0,0,0,1.169.261,2.853,2.853,0,0,0,1.637-.52q.793-.526,1.611-1.011t1.658-.928q.84-.443,1.7-.845t1.743-.759q-.117.227-.232.458t-.23.467q-.114.236-.227.477t-.224.486a38.9,38.9,0,0,0-2.14,6,38.107,38.107,0,0,0-1.211,7.421A39.025,39.025,0,0,0,7.3,56.316,44.442,44.442,0,0,0,10.088,66.1l0,.006,0,.006,0,.006,0,.006,0,0v.01q.2.428.406.85t.435.835q.224.414.463.82t.49.8a1.087,1.087,0,1,0,1.839-1.159q-.188-.3-.368-.6t-.351-.61q-.172-.307-.335-.619t-.318-.628a31.554,31.554,0,0,1,2.55-2.726,41.083,41.083,0,0,1,4.927-4.026,42.121,42.121,0,0,1,16.971-6.964v3.38a1.087,1.087,0,1,0,2.174,0V51.8q1.362-.164,2.731-.246t2.738-.082q1.37,0,2.738.083t2.73.247v3.7a1.087,1.087,0,1,0,2.174,0V52.116a42.273,42.273,0,0,1,16.717,6.76q1.082.732,2.109,1.535t2,1.674q.969.871,1.876,1.807t1.75,1.934q-.155.316-.318.628t-.335.619q-.172.307-.351.61t-.368.6a1.087,1.087,0,1,0,1.839,1.159q.252-.4.49-.8t.463-.82q.224-.414.435-.835t.406-.85v-.015l0,0,0-.006,0-.007,0-.007a44.442,44.442,0,0,0,2.791-9.781,39.023,39.023,0,0,0,.433-8.681,38.1,38.1,0,0,0-1.211-7.421,38.892,38.892,0,0,0-2.14-6q-.111-.246-.224-.486t-.227-.477q-.114-.236-.23-.467t-.232-.458q.881.358,1.744.759t1.7.845q.84.443,1.658.928T84.5,35.87a2.848,2.848,0,0,0,1.636.52,2.755,2.755,0,0,0,1.179-.264l.009,0,.014-.007.014-.007.009,0A2.773,2.773,0,0,0,88.9,33.831a2.84,2.84,0,0,0-1.165-2.56ZM27.938,5.7a9.682,9.682,0,0,1,6.486-3.24l.425-.033.431-.03.436-.028.438-.025,2.812-.114c.738-.021,1.447-.034,2.1-.042S42.3,2.174,42.8,2.173s.9,0,1.188,0l.455,0h.032c.014,0,.372,0,.97-.006s1.437,0,2.411.013,2.084.036,3.224.079,2.312.1,3.411.193A9.682,9.682,0,0,1,60.975,5.7a19.769,19.769,0,0,1,1.943,2.585,18.71,18.71,0,0,1,2.729,7.53A21,21,0,0,1,65.7,20.8c-2.457-.573-4.979-1-7.39-1.329s-4.708-.544-6.716-.691-3.725-.223-4.975-.261-2.031-.041-2.166-.041h0c-.08,0-.386,0-.881.009s-1.179.025-2.015.057-1.824.078-2.928.147-2.323.16-3.621.28l-2.163.223q-1.216.131-2.427.3T28,19.855q-1.206.2-2.4.437t-2.392.506a20.992,20.992,0,0,1,.057-4.986A18.7,18.7,0,0,1,26,8.282,19.76,19.76,0,0,1,27.938,5.7ZM3.164,34.09a.639.639,0,0,1-.649.064.6.6,0,0,1-.338-.509.683.683,0,0,1,.278-.617q1.515-1.09,3.084-2.1T8.729,29q1.62-.921,3.288-1.755t3.38-1.578q-.342.435-.671.879t-.648.9q-.318.452-.623.913t-.6.93l-.008,0-.008,0-.008,0-.008,0q-1.55.595-2.933,1.194T7.3,31.69q-1.21.6-2.245,1.2t-1.888,1.2ZM77.476,63.562q-.82-.909-1.691-1.768t-1.792-1.663q-.92-.8-1.888-1.553t-1.978-1.44a44.891,44.891,0,0,0-25.671-7.846,44.891,44.891,0,0,0-25.669,7.845q-1.011.691-1.978,1.44T14.921,60.13q-.92.8-1.792,1.663t-1.691,1.768a42.209,42.209,0,0,1-1.967-7.293,36.583,36.583,0,0,1-.535-7.174,35,35,0,0,1,.9-7.033,37.331,37.331,0,0,1,2.328-6.869q.7-1.564,1.528-3.056t1.793-2.9q.961-1.408,2.047-2.726t2.289-2.536a59.755,59.755,0,0,1,8.174-1.906c2.781-.466,5.526-.779,7.953-.989s4.537-.318,6.049-.373,2.426-.058,2.462-.058.949,0,2.461.057,3.621.162,6.047.372,5.171.523,7.953.989a59.771,59.771,0,0,1,8.177,1.907q1.2,1.218,2.289,2.536t2.047,2.727q.961,1.408,1.794,2.9t1.528,3.056a37.331,37.331,0,0,1,2.328,6.869,35,35,0,0,1,.9,7.033,36.583,36.583,0,0,1-.535,7.174A42.208,42.208,0,0,1,77.476,63.562Zm8.9-29.4a.632.632,0,0,1-.628-.074Q84.9,33.5,83.875,32.9T81.65,31.707q-1.2-.6-2.569-1.191t-2.9-1.185l-.028-.009-.028-.008-.028-.008-.028-.007q-.294-.47-.6-.933t-.625-.916q-.319-.454-.649-.9t-.673-.881q1.712.744,3.38,1.578T80.183,29q1.62.921,3.19,1.928t3.084,2.1a.683.683,0,0,1,.278.617.616.616,0,0,1-.359.518Z" transform="translate(6.326)" fill="#343449"/>
      </g>
      <path id="Pfad_9440" data-name="Pfad 9440" d="M3.148.166H0v8.31H1.9V5.865H3.148a3,3,0,0,0,1.146-.223,2.867,2.867,0,0,0,.923-.609A2.834,2.834,0,0,0,5.217,1,2.867,2.867,0,0,0,4.294.389,3,3,0,0,0,3.148.166Zm0,3.918H1.9V1.947H3.148a1.008,1.008,0,0,1,.4.082.963.963,0,0,1,.32.225,1.033,1.033,0,0,1,.211.339,1.214,1.214,0,0,1,0,.845,1.033,1.033,0,0,1-.211.339A.963.963,0,0,1,3.551,4,1.008,1.008,0,0,1,3.148,4.084Zm8.227,4.392h2.042L11.648,5.425A2.877,2.877,0,0,0,12.273,5a2.819,2.819,0,0,0,.484-.567,2.68,2.68,0,0,0,.312-.672,2.551,2.551,0,0,0,.111-.742A2.842,2.842,0,0,0,10.33.166H7.006v8.31h1.9V5.746h.9ZM8.906,1.947H10.33a.87.87,0,0,1,.369.082.942.942,0,0,1,.3.225,1.066,1.066,0,0,1,.2.339,1.228,1.228,0,0,1,0,.845,1.066,1.066,0,0,1-.2.339A.942.942,0,0,1,10.7,4a.87.87,0,0,1-.369.082H8.906Zm9.248,6.7a4.387,4.387,0,0,0,1.682-.331,4.258,4.258,0,0,0,2.3-2.283,4.459,4.459,0,0,0,0-3.414,4.258,4.258,0,0,0-2.3-2.283,4.435,4.435,0,0,0-3.364,0,4.258,4.258,0,0,0-2.3,2.283,4.459,4.459,0,0,0,0,3.414,4.258,4.258,0,0,0,2.3,2.283A4.387,4.387,0,0,0,18.154,8.642Zm0-1.852a2.562,2.562,0,0,1-.949-.177,2.279,2.279,0,0,1-1.284-1.28,2.7,2.7,0,0,1-.188-1.012,2.7,2.7,0,0,1,.188-1.012A2.279,2.279,0,0,1,17.2,2.029a2.632,2.632,0,0,1,1.9,0,2.279,2.279,0,0,1,1.284,1.28,2.7,2.7,0,0,1,.188,1.012,2.7,2.7,0,0,1-.188,1.012A2.279,2.279,0,0,1,19.1,6.613,2.562,2.562,0,0,1,18.154,6.791Z" transform="translate(23847.566 -4254.829)" fill="#fff"/>
      <g id="Gruppe_4620" data-name="Gruppe 4620" transform="translate(23790.266 -4224.649)">
        <g id="Icons" transform="translate(0.846 0.845)">
          <path id="Pfad_8954" data-name="Pfad 8954" d="M39.547,29.374a2.939,2.939,0,0,0-.829,2.581l2.048,12.006a2.9,2.9,0,0,1-4.2,3.08L26.23,41.549V33.7l2.191,2.183a1.687,1.687,0,1,0,2.386-2.386l-5.076-5.077a1.67,1.67,0,0,0-2.386,0l-5.076,5.077a1.687,1.687,0,1,0,2.386,2.386L22.846,33.7v7.852L12.506,47.041a2.9,2.9,0,0,1-4.2-3.08l2.048-12.006a2.939,2.939,0,0,0-.829-2.581l-8.655-8.5A2.926,2.926,0,0,1,2.48,15.9l11.947-1.751A2.9,2.9,0,0,0,16.6,12.554L21.949,1.623a2.877,2.877,0,0,1,5.178,0l5.347,10.931a2.9,2.9,0,0,0,2.174,1.591L46.6,15.9A2.926,2.926,0,0,1,48.2,20.871Z" fill="#ffdf00"/>
          <path id="Pfad_8955" data-name="Pfad 8955" d="M24.936,20.87A2.926,2.926,0,0,0,23.328,15.9L11.382,14.144a2.9,2.9,0,0,1-2.174-1.591L3.86,1.622A2.877,2.877,0,0,0,0,.3,2.845,2.845,0,0,1,.413.54,2.846,2.846,0,0,1,.774.847a2.846,2.846,0,0,1,.305.363,2.845,2.845,0,0,1,.242.412L6.669,12.553a2.9,2.9,0,0,0,2.174,1.591L20.79,15.9A2.926,2.926,0,0,1,22.4,20.87l-8.655,8.5a2.939,2.939,0,0,0-.829,2.581L14.961,43.96a2.914,2.914,0,0,1-1.582,3.114A2.9,2.9,0,0,0,17.5,43.96L15.451,31.954a2.939,2.939,0,0,1,.829-2.581Z" transform="translate(23.268 0.001)" fill="#fec108"/>
          <path id="Pfad_8956" data-name="Pfad 8956" d="M13.033,7.964a1.675,1.675,0,0,1-2.386,0L8.456,5.781v9.451a1.692,1.692,0,1,1-3.384,0V5.781L2.88,7.964A1.687,1.687,0,1,1,.494,5.578L5.571.5A1.67,1.67,0,0,1,7.957.5l5.077,5.077a1.67,1.67,0,0,1,0,2.386Z" transform="translate(17.773 27.917)" fill="#e91e63"/>
        </g>
        <g id="Icons_copy" data-name="Icons copy">
          <path id="Pfad_8957" data-name="Pfad 8957" d="M35.615,14.152a2.045,2.045,0,0,1-1.536-1.124L28.732,2.1a3.723,3.723,0,0,0-6.7,0L16.689,13.027a2.05,2.05,0,0,1-1.539,1.129L3.2,15.9a3.722,3.722,0,0,0-3.01,2.538,3.762,3.762,0,0,0,.931,3.873l8.655,8.507a2.087,2.087,0,0,1,.592,1.836L8.32,44.671a3.765,3.765,0,0,0,1.516,3.7,3.693,3.693,0,0,0,3.912.267l9.1-4.834v.192a2.538,2.538,0,1,0,5.077,0V43.8l9.1,4.831a3.693,3.693,0,0,0,3.912-.268,3.761,3.761,0,0,0,1.514-3.7L40.4,32.656a2.086,2.086,0,0,1,.592-1.836l8.653-8.5a3.76,3.76,0,0,0,.931-3.872,3.722,3.722,0,0,0-3.009-2.538ZM26.229,43.994a.846.846,0,1,1-1.692,0V34.541a.846.846,0,0,0-1.444-.6L20.9,36.131a.863.863,0,0,1-1.2,0,.845.845,0,0,1,0-1.2l5.076-5.077a.863.863,0,0,1,1.2,0l5.077,5.076a.845.845,0,0,1,0,1.2.863.863,0,0,1-1.2,0l-2.188-2.188a.846.846,0,0,0-1.444.6Zm22.736-25.02a2.054,2.054,0,0,1-.508,2.139l-8.659,8.5a3.783,3.783,0,0,0-1.069,3.325l2.047,12a2.054,2.054,0,0,1-.834,2.047,1.986,1.986,0,0,1-2.13.146l-9.89-5.252v-5.3l.743.744a2.6,2.6,0,0,0,3.59,0,2.536,2.536,0,0,0,0-3.589l-5.077-5.077a2.6,2.6,0,0,0-3.59,0l-5.076,5.076a2.536,2.536,0,0,0,0,3.589,2.6,2.6,0,0,0,3.59,0l.744-.744v5.3l-9.889,5.252a1.989,1.989,0,0,1-2.131-.146,2.054,2.054,0,0,1-.835-2.044l2.048-12.007a3.781,3.781,0,0,0-1.071-3.325l-8.653-8.5a2.055,2.055,0,0,1-.508-2.141,2.016,2.016,0,0,1,1.647-1.4l11.94-1.751a3.746,3.746,0,0,0,2.815-2.057L23.554,2.839a2.03,2.03,0,0,1,3.658,0l5.349,10.935a3.739,3.739,0,0,0,2.81,2.053l11.948,1.751a2.014,2.014,0,0,1,1.646,1.4Z" fill="#242424"/>
          <path id="Pfad_9441" data-name="Pfad 9441" d="M.953.825V5.712H2.885a.565.565,0,0,1,.109.01.433.433,0,0,1,.1.03.384.384,0,0,1,.082.05.408.408,0,0,1,.069.07.551.551,0,0,1,.054.085.586.586,0,0,1,.039.1.681.681,0,0,1,.023.106.844.844,0,0,1,.008.116.873.873,0,0,1-.008.118.678.678,0,0,1-.023.106.56.56,0,0,1-.038.094.505.505,0,0,1-.053.083.39.39,0,0,1-.068.067.383.383,0,0,1-.082.048A.45.45,0,0,1,3,6.82a.6.6,0,0,1-.11.01H.584a.8.8,0,0,1-.145-.012A.552.552,0,0,1,.317,6.78a.434.434,0,0,1-.1-.062.42.42,0,0,1-.079-.086.565.565,0,0,1-.06-.114.9.9,0,0,1-.043-.144A1.459,1.459,0,0,1,.009,6.2Q0,6.106,0,6V.825q0-.1.008-.193A1.447,1.447,0,0,1,.032.464.957.957,0,0,1,.073.322.644.644,0,0,1,.13.206.547.547,0,0,1,.2.116.4.4,0,0,1,.28.052.352.352,0,0,1,.371.013.386.386,0,0,1,.472,0a.4.4,0,0,1,.1.013A.364.364,0,0,1,.666.051.41.41,0,0,1,.748.115.548.548,0,0,1,.82.2.622.622,0,0,1,.878.319.931.931,0,0,1,.92.461,1.423,1.423,0,0,1,.945.629Q.953.72.953.825Zm6.137.339H4.943V2.812H6.92a.567.567,0,0,1,.1.009.412.412,0,0,1,.088.026.334.334,0,0,1,.135.1.458.458,0,0,1,.047.075.522.522,0,0,1,.034.087.647.647,0,0,1,.02.1.845.845,0,0,1,.007.109.865.865,0,0,1-.007.109.672.672,0,0,1-.02.1.55.55,0,0,1-.033.088.486.486,0,0,1-.046.077.329.329,0,0,1-.135.108.4.4,0,0,1-.089.027.562.562,0,0,1-.1.009H4.943v1.91H7.164a.568.568,0,0,1,.105.009.421.421,0,0,1,.092.028.357.357,0,0,1,.078.047A.365.365,0,0,1,7.5,5.9a.484.484,0,0,1,.05.081.56.56,0,0,1,.036.093.7.7,0,0,1,.021.105.927.927,0,0,1,.007.118.868.868,0,0,1-.007.114.675.675,0,0,1-.021.1.554.554,0,0,1-.036.091.5.5,0,0,1-.05.08.365.365,0,0,1-.064.065.357.357,0,0,1-.078.047.421.421,0,0,1-.092.028.568.568,0,0,1-.105.009H4.574a.8.8,0,0,1-.145-.012.552.552,0,0,1-.123-.037.434.434,0,0,1-.1-.062.42.42,0,0,1-.079-.086.565.565,0,0,1-.06-.114.9.9,0,0,1-.043-.144A1.459,1.459,0,0,1,4,6.2q-.009-.095-.009-.2V.948q0-.073,0-.14T4,.682q.008-.06.019-.113A.978.978,0,0,1,4.05.47.684.684,0,0,1,4.085.383.532.532,0,0,1,4.129.309.44.44,0,0,1,4.181.248.4.4,0,0,1,4.241.2a.457.457,0,0,1,.07-.037A.532.532,0,0,1,4.389.136.659.659,0,0,1,4.477.12a.845.845,0,0,1,.1-.005H7.09A.6.6,0,0,1,7.2.124a.43.43,0,0,1,.092.027A.35.35,0,0,1,7.366.2a.344.344,0,0,1,.063.063.476.476,0,0,1,.048.078.538.538,0,0,1,.035.089.661.661,0,0,1,.021.1.856.856,0,0,1,.007.111A.886.886,0,0,1,7.532.75a.675.675,0,0,1-.021.1.541.541,0,0,1-.035.09.471.471,0,0,1-.048.078.344.344,0,0,1-.063.063.35.35,0,0,1-.077.045.43.43,0,0,1-.092.027A.6.6,0,0,1,7.09,1.163ZM9.07.893l1.066,4.5L11.2.861,11.243.7q.018-.076.034-.138t.029-.111Q11.319.4,11.33.364A.691.691,0,0,1,11.354.3a.675.675,0,0,1,.031-.065A.683.683,0,0,1,11.423.17a.713.713,0,0,1,.045-.058A.319.319,0,0,1,11.52.063a.3.3,0,0,1,.061-.035.337.337,0,0,1,.07-.021A.427.427,0,0,1,11.731,0a.325.325,0,0,1,.118.022A.356.356,0,0,1,11.9.049a.424.424,0,0,1,.053.038.514.514,0,0,1,.049.047.548.548,0,0,1,.044.054.612.612,0,0,1,.038.061.708.708,0,0,1,.032.069q.015.036.026.072t.019.073a.736.736,0,0,1,.011.073.723.723,0,0,1,0,.073q0,.025,0,.051t0,.053q0,.027-.006.055t-.008.057q0,.029-.01.058t-.011.058L12.126,1l-.014.056-.014.057-.014.057-.014.058-.014.059L10.915,5.675l-.03.124-.03.121-.03.118-.03.115q-.015.057-.032.11t-.034.1q-.018.05-.037.1t-.039.089a.91.91,0,0,1-.043.082.819.819,0,0,1-.05.074.761.761,0,0,1-.057.067.735.735,0,0,1-.063.059.464.464,0,0,1-.148.082.509.509,0,0,1-.085.021.605.605,0,0,1-.093.007.618.618,0,0,1-.093-.007.518.518,0,0,1-.085-.02.466.466,0,0,1-.148-.081.694.694,0,0,1-.063-.058.736.736,0,0,1-.057-.067.813.813,0,0,1-.051-.075.928.928,0,0,1-.044-.084q-.02-.044-.04-.091t-.037-.1q-.018-.05-.034-.1t-.032-.109L9.4,6.038l-.03-.117L9.338,5.8l-.03-.124L8.187,1.324l-.015-.059-.015-.059-.015-.058L8.128,1.09q-.008-.029-.015-.058T8.1.971Q8.094.94,8.088.908T8.077.843Q8.071.81,8.068.779T8.061.72q0-.028,0-.054t0-.048A.783.783,0,0,1,8.064.5.725.725,0,0,1,8.13.291a.779.779,0,0,1,.058-.1.549.549,0,0,1,.07-.084.4.4,0,0,1,.078-.06A.349.349,0,0,1,8.423.012.372.372,0,0,1,8.518,0a.455.455,0,0,1,.113.013.341.341,0,0,1,.1.04A.329.329,0,0,1,8.8.12a.418.418,0,0,1,.059.093q.025.053.051.122T8.965.49q.026.085.052.186T9.07.893ZM16,1.163H13.849V2.812h1.977a.567.567,0,0,1,.1.009.412.412,0,0,1,.088.026.334.334,0,0,1,.135.1.458.458,0,0,1,.047.075.522.522,0,0,1,.034.087.647.647,0,0,1,.02.1.845.845,0,0,1,.007.109.864.864,0,0,1-.007.109.672.672,0,0,1-.02.1.549.549,0,0,1-.033.088.486.486,0,0,1-.046.077.329.329,0,0,1-.135.108.4.4,0,0,1-.089.027.562.562,0,0,1-.1.009H13.849v1.91H16.07a.568.568,0,0,1,.105.009.421.421,0,0,1,.092.028.357.357,0,0,1,.078.047.365.365,0,0,1,.064.065.484.484,0,0,1,.05.081.56.56,0,0,1,.036.093.7.7,0,0,1,.021.105.927.927,0,0,1,.007.118.868.868,0,0,1-.007.114.674.674,0,0,1-.021.1.554.554,0,0,1-.036.091.5.5,0,0,1-.05.08.365.365,0,0,1-.064.065.357.357,0,0,1-.078.047.421.421,0,0,1-.092.028.568.568,0,0,1-.105.009H13.48a.8.8,0,0,1-.145-.012.552.552,0,0,1-.123-.037.434.434,0,0,1-.1-.062.42.42,0,0,1-.079-.086.565.565,0,0,1-.06-.114.9.9,0,0,1-.043-.144A1.459,1.459,0,0,1,12.9,6.2Q12.9,6.106,12.9,6V.948q0-.073,0-.14t.011-.126q.008-.06.019-.113a.978.978,0,0,1,.027-.1.684.684,0,0,1,.035-.086.532.532,0,0,1,.043-.074.44.44,0,0,1,.052-.061A.4.4,0,0,1,13.148.2a.457.457,0,0,1,.07-.037A.532.532,0,0,1,13.3.136.659.659,0,0,1,13.383.12a.845.845,0,0,1,.1-.005H16A.6.6,0,0,1,16.1.124a.43.43,0,0,1,.092.027A.35.35,0,0,1,16.272.2a.344.344,0,0,1,.063.063.476.476,0,0,1,.048.078.538.538,0,0,1,.035.089.661.661,0,0,1,.021.1.856.856,0,0,1,.007.111.886.886,0,0,1-.007.113.675.675,0,0,1-.021.1.541.541,0,0,1-.035.09.471.471,0,0,1-.048.078.344.344,0,0,1-.063.063.35.35,0,0,1-.077.045.43.43,0,0,1-.092.027A.6.6,0,0,1,16,1.163ZM18.214.825V5.712h1.932a.565.565,0,0,1,.109.01.433.433,0,0,1,.1.03.384.384,0,0,1,.082.05.408.408,0,0,1,.069.07.551.551,0,0,1,.054.085.586.586,0,0,1,.039.1.681.681,0,0,1,.023.106.844.844,0,0,1,.008.116.873.873,0,0,1-.008.118.678.678,0,0,1-.023.106.56.56,0,0,1-.038.094.505.505,0,0,1-.053.083.39.39,0,0,1-.068.067.383.383,0,0,1-.082.048.45.45,0,0,1-.1.029.6.6,0,0,1-.11.01h-2.3a.8.8,0,0,1-.145-.012.552.552,0,0,1-.123-.037.434.434,0,0,1-.1-.062.42.42,0,0,1-.079-.086.565.565,0,0,1-.06-.114.9.9,0,0,1-.043-.144,1.459,1.459,0,0,1-.026-.174q-.009-.095-.009-.2V.825q0-.1.008-.193a1.447,1.447,0,0,1,.024-.167.957.957,0,0,1,.041-.142.644.644,0,0,1,.057-.116.547.547,0,0,1,.07-.09.4.4,0,0,1,.08-.064.352.352,0,0,1,.091-.039.386.386,0,0,1,.1-.013.4.4,0,0,1,.1.013.364.364,0,0,1,.092.038.41.41,0,0,1,.082.064A.548.548,0,0,1,18.081.2a.621.621,0,0,1,.058.115.931.931,0,0,1,.042.142,1.424,1.424,0,0,1,.025.168Q18.214.72,18.214.825ZM22.9,4.054V.825q0-.1.008-.193a1.447,1.447,0,0,1,.024-.167.957.957,0,0,1,.041-.142A.644.644,0,0,1,23.03.206a.547.547,0,0,1,.07-.09.4.4,0,0,1,.08-.064.352.352,0,0,1,.091-.039.386.386,0,0,1,.1-.013.417.417,0,0,1,.105.013.366.366,0,0,1,.094.039.4.4,0,0,1,.082.064.529.529,0,0,1,.071.09.644.644,0,0,1,.057.116.957.957,0,0,1,.041.142,1.447,1.447,0,0,1,.024.167q.008.09.008.193v3.3q0,.141.006.27t.017.247q.011.118.028.224t.039.2a1.548,1.548,0,0,0,.053.178,1.224,1.224,0,0,0,.07.157,1.011,1.011,0,0,0,.087.136.894.894,0,0,0,.1.115.69.69,0,0,0,.124.091.778.778,0,0,0,.146.065.984.984,0,0,0,.168.039,1.332,1.332,0,0,0,.191.013,1.192,1.192,0,0,0,.259-.026.847.847,0,0,0,.218-.079.734.734,0,0,0,.177-.132.825.825,0,0,0,.136-.185,1.409,1.409,0,0,0,.1-.239,2.228,2.228,0,0,0,.072-.294,3.482,3.482,0,0,0,.043-.349q.014-.188.014-.4V.825q0-.1.008-.2a1.473,1.473,0,0,1,.024-.168.958.958,0,0,1,.04-.142A.631.631,0,0,1,26.032.2.53.53,0,0,1,26.1.115a.4.4,0,0,1,.08-.064.355.355,0,0,1,.091-.038.417.417,0,0,1,.2,0,.364.364,0,0,1,.092.038.41.41,0,0,1,.082.064A.548.548,0,0,1,26.724.2a.622.622,0,0,1,.058.115.931.931,0,0,1,.042.142,1.423,1.423,0,0,1,.025.168q.008.091.008.2V4.054q0,.2-.007.378t-.02.345q-.013.164-.034.312t-.047.28a2.566,2.566,0,0,1-.066.255,2.336,2.336,0,0,1-.09.239,2.2,2.2,0,0,1-.113.223,2.152,2.152,0,0,1-.137.207,1.884,1.884,0,0,1-.134.158,1.637,1.637,0,0,1-.144.135,1.48,1.48,0,0,1-.154.112,1.4,1.4,0,0,1-.165.089,1.547,1.547,0,0,1-.177.068,1.747,1.747,0,0,1-.192.049,2.037,2.037,0,0,1-.206.029q-.107.01-.221.01-.136,0-.262-.01T24.446,6.9a2.15,2.15,0,0,1-.224-.052,1.825,1.825,0,0,1-.205-.073,1.537,1.537,0,0,1-.187-.1,1.456,1.456,0,0,1-.319-.259,1.563,1.563,0,0,1-.133-.164,1.8,1.8,0,0,1-.115-.188,2.165,2.165,0,0,1-.1-.212q-.045-.112-.082-.237t-.066-.261q-.029-.137-.051-.287t-.036-.314q-.014-.163-.022-.34T22.9,4.054Zm6.814.16H28.84v1.9q0,.1-.008.192a1.4,1.4,0,0,1-.025.167.952.952,0,0,1-.042.142.665.665,0,0,1-.059.118.591.591,0,0,1-.072.092.419.419,0,0,1-.081.066.348.348,0,0,1-.089.04.362.362,0,0,1-.1.013.393.393,0,0,1-.1-.013.357.357,0,0,1-.092-.039.406.406,0,0,1-.081-.065.552.552,0,0,1-.071-.091.661.661,0,0,1-.058-.116.951.951,0,0,1-.041-.141,1.4,1.4,0,0,1-.025-.165q-.008-.089-.008-.189V.948q0-.112.009-.208a1.4,1.4,0,0,1,.027-.176.853.853,0,0,1,.045-.144.528.528,0,0,1,.063-.112.438.438,0,0,1,.083-.084.461.461,0,0,1,.1-.06.588.588,0,0,1,.125-.036.843.843,0,0,1,.147-.012h1.223q.136,0,.256.007t.224.022a1.879,1.879,0,0,1,.193.037,1.214,1.214,0,0,1,.162.052,1.125,1.125,0,0,1,.14.067,1.141,1.141,0,0,1,.13.086,1.223,1.223,0,0,1,.12.1,1.373,1.373,0,0,1,.11.123,1.559,1.559,0,0,1,.1.14,1.725,1.725,0,0,1,.086.155q.04.081.074.17t.061.185q.027.1.048.2t.034.21q.014.108.02.222t.007.234a3.961,3.961,0,0,1-.028.482,2.762,2.762,0,0,1-.083.42,1.99,1.99,0,0,1-.138.358,1.559,1.559,0,0,1-.194.3,1.358,1.358,0,0,1-.249.231,1.421,1.421,0,0,1-.3.165,1.758,1.758,0,0,1-.357.1A2.422,2.422,0,0,1,29.713,4.214Zm-.231-3.078H28.84V3.188h.642q.084,0,.162-.006t.148-.019a1.227,1.227,0,0,0,.134-.031.986.986,0,0,0,.12-.044.719.719,0,0,0,.106-.058.68.68,0,0,0,.093-.074.7.7,0,0,0,.08-.09.792.792,0,0,0,.066-.107.872.872,0,0,0,.052-.123,1.129,1.129,0,0,0,.037-.141,1.5,1.5,0,0,0,.022-.159q.007-.084.007-.177a1.88,1.88,0,0,0-.011-.212,1.445,1.445,0,0,0-.034-.191,1.148,1.148,0,0,0-.057-.171.969.969,0,0,0-.08-.15.527.527,0,0,0-.13-.13.74.74,0,0,0-.184-.093,1.231,1.231,0,0,0-.238-.056A2.112,2.112,0,0,0,29.482,1.136Z" transform="translate(9.645 18.854)" fill="#242424"/>
          <path id="Pfad_9441_-_Kontur" data-name="Pfad 9441 - Kontur" d="M.873,0a.8.8,0,0,1,.2.025A.764.764,0,0,1,1.258.1.81.81,0,0,1,1.42.22a.936.936,0,0,1,.136.165,1.007,1.007,0,0,1,.087.167,1.276,1.276,0,0,1,.062.195A1.75,1.75,0,0,1,1.742.97a2.5,2.5,0,0,1,.012.255V5.712H3.286a.947.947,0,0,1,.239.029.8.8,0,0,1,.188.075.783.783,0,0,1,.143.1.826.826,0,0,1,.1.11l.008.011.008.011.008.011.008.011V1.349q0-.09,0-.172t.015-.157q.01-.075.025-.143t.036-.13A1.084,1.084,0,0,1,4.132.6a.917.917,0,0,1,.079-.13.825.825,0,0,1,.1-.111A.8.8,0,0,1,4.423.264.855.855,0,0,1,4.544.2.922.922,0,0,1,4.676.152,1.047,1.047,0,0,1,4.82.124,1.234,1.234,0,0,1,4.974.114H7.491a.968.968,0,0,1,.236.028.785.785,0,0,1,.184.071.738.738,0,0,1,.138.1.756.756,0,0,1,.1.1l.011.015.011.015L8.18.462l.01.016L8.206.449,8.222.421,8.24.394,8.258.367A.934.934,0,0,1,8.392.21.805.805,0,0,1,8.55.095.75.75,0,0,1,8.727.024.769.769,0,0,1,8.919,0a.845.845,0,0,1,.225.03.743.743,0,0,1,.2.086A.731.731,0,0,1,9.5.254a.811.811,0,0,1,.122.187q.03.064.06.143t.059.174q.029.095.058.206t.058.24l.674,2.849.68-2.884L11.256,1q.019-.079.035-.143t.03-.116q.014-.051.025-.089a1.091,1.091,0,0,1,.038-.108,1.079,1.079,0,0,1,.109-.2,1.113,1.113,0,0,1,.07-.091A.727.727,0,0,1,11.68.143a.694.694,0,0,1,.135-.079.728.728,0,0,1,.151-.048A.831.831,0,0,1,12.132,0a.725.725,0,0,1,.254.046A.758.758,0,0,1,12.5.1a.817.817,0,0,1,.11.078A.915.915,0,0,1,12.7.26a.945.945,0,0,1,.075.091,1.008,1.008,0,0,1,.064.1,1.106,1.106,0,0,1,.054.112q.012.028.022.057t.019.058q.009.029.016.058T12.961.8l0-.013,0-.013,0-.013,0-.013A1.084,1.084,0,0,1,13.038.6a.917.917,0,0,1,.079-.13.825.825,0,0,1,.1-.111A.8.8,0,0,1,13.33.264.855.855,0,0,1,13.45.2a.922.922,0,0,1,.132-.047,1.047,1.047,0,0,1,.144-.028,1.234,1.234,0,0,1,.155-.009H16.4a.968.968,0,0,1,.236.028.785.785,0,0,1,.184.071.738.738,0,0,1,.138.1.756.756,0,0,1,.1.1.879.879,0,0,1,.084.133A.924.924,0,0,1,17.2.7a1.046,1.046,0,0,1,.036.163,1.25,1.25,0,0,1,.012.177,1.277,1.277,0,0,1-.012.179,1.059,1.059,0,0,1-.036.164.927.927,0,0,1-.06.149.872.872,0,0,1-.084.134.756.756,0,0,1-.1.1.738.738,0,0,1-.138.1.785.785,0,0,1-.184.071.968.968,0,0,1-.236.028H14.65v.848h1.577a.941.941,0,0,1,.231.027.769.769,0,0,1,.181.07.728.728,0,0,1,.136.1.75.75,0,0,1,.1.1.859.859,0,0,1,.083.131.908.908,0,0,1,.06.146,1.032,1.032,0,0,1,.036.161,1.238,1.238,0,0,1,.012.175,1.258,1.258,0,0,1-.012.173,1.059,1.059,0,0,1-.035.16.937.937,0,0,1-.057.146.887.887,0,0,1-.08.132.727.727,0,0,1-.277.228.806.806,0,0,1-.177.059.939.939,0,0,1-.2.02H14.65V5.749h1.82a.945.945,0,0,1,.235.028.781.781,0,0,1,.184.072.75.75,0,0,1,.139.1.78.78,0,0,1,.1.107q.021.028.04.057t.036.06q.017.031.031.063t.026.067V1.225q0-.133.012-.251a1.776,1.776,0,0,1,.036-.221,1.3,1.3,0,0,1,.06-.193,1.03,1.03,0,0,1,.084-.166.936.936,0,0,1,.135-.168A.8.8,0,0,1,17.748.1a.749.749,0,0,1,.183-.076.786.786,0,0,1,.2-.026.8.8,0,0,1,.2.025A.764.764,0,0,1,18.519.1a.81.81,0,0,1,.162.121.936.936,0,0,1,.136.165A1.007,1.007,0,0,1,18.9.552a1.276,1.276,0,0,1,.062.195A1.75,1.75,0,0,1,19,.97a2.5,2.5,0,0,1,.012.255V5.712h1.532a.947.947,0,0,1,.239.029.8.8,0,0,1,.188.075.783.783,0,0,1,.143.1.826.826,0,0,1,.1.11.956.956,0,0,1,.09.141.975.975,0,0,1,.065.155,1.069,1.069,0,0,1,.039.169,1.245,1.245,0,0,1,.013.182,1.27,1.27,0,0,1-.013.185,1.064,1.064,0,0,1-.039.171.946.946,0,0,1-.065.155.909.909,0,0,1-.091.139.8.8,0,0,1-.1.106.777.777,0,0,1-.142.1.812.812,0,0,1-.188.072.977.977,0,0,1-.238.028h-2.3a1.153,1.153,0,0,1-.287-.034.891.891,0,0,1-.22-.087.815.815,0,0,1-.161-.119.832.832,0,0,1-.11-.129.9.9,0,0,1-.05-.082q-.023-.043-.043-.09t-.036-.1q-.016-.051-.029-.107a1.071,1.071,0,0,1-.026.122.972.972,0,0,1-.039.114.914.914,0,0,1-.052.106.9.9,0,0,1-.065.1.78.78,0,0,1-.1.107.75.75,0,0,1-.139.1.781.781,0,0,1-.184.072.945.945,0,0,1-.235.028h-2.59a1.153,1.153,0,0,1-.287-.034.891.891,0,0,1-.22-.087.815.815,0,0,1-.161-.119.832.832,0,0,1-.11-.129.943.943,0,0,1-.091-.167,1.242,1.242,0,0,1-.065-.2,1.771,1.771,0,0,1-.039-.232A2.615,2.615,0,0,1,12.9,6.4V1.576l-.013.05-.013.051-.013.052-.013.052,0,.006L11.7,6.173l-.031.126-.031.123-.031.12-.031.116q-.017.065-.037.126t-.04.12q-.021.058-.043.113t-.046.105a1.307,1.307,0,0,1-.064.121,1.219,1.219,0,0,1-.075.111,1.162,1.162,0,0,1-.086.1,1.134,1.134,0,0,1-.1.089.861.861,0,0,1-.127.087.871.871,0,0,1-.141.063.916.916,0,0,1-.152.038.993.993,0,0,1-.161.013,1,1,0,0,1-.16-.013A.925.925,0,0,1,10.2,7.7a.877.877,0,0,1-.14-.062.861.861,0,0,1-.127-.085,1.093,1.093,0,0,1-.1-.089,1.136,1.136,0,0,1-.087-.1,1.214,1.214,0,0,1-.077-.113,1.324,1.324,0,0,1-.066-.124q-.024-.052-.046-.107T9.52,6.9q-.021-.058-.04-.119t-.037-.125l-.031-.116-.031-.12L9.351,6.3,9.32,6.173,8.2,1.819l-.01-.043-.011-.042-.011-.042L8.157,1.65l0,0,0,0,0,0,0,0a.756.756,0,0,1-.1.1.738.738,0,0,1-.138.1.785.785,0,0,1-.184.071.968.968,0,0,1-.236.028H5.744v.848H7.321a.941.941,0,0,1,.231.027.769.769,0,0,1,.181.07.728.728,0,0,1,.136.1.75.75,0,0,1,.1.1.859.859,0,0,1,.083.131.908.908,0,0,1,.06.146,1.032,1.032,0,0,1,.036.161,1.238,1.238,0,0,1,.012.175,1.258,1.258,0,0,1-.012.173,1.059,1.059,0,0,1-.035.16.937.937,0,0,1-.057.146.887.887,0,0,1-.08.132.727.727,0,0,1-.277.228.806.806,0,0,1-.177.059.939.939,0,0,1-.2.02H5.744V5.749h1.82a.945.945,0,0,1,.235.028.781.781,0,0,1,.184.072.75.75,0,0,1,.139.1.78.78,0,0,1,.1.107.884.884,0,0,1,.086.136.946.946,0,0,1,.061.152,1.087,1.087,0,0,1,.037.168,1.316,1.316,0,0,1,.012.183,1.263,1.263,0,0,1-.012.179,1.061,1.061,0,0,1-.037.165.941.941,0,0,1-.061.151.9.9,0,0,1-.086.135.78.78,0,0,1-.1.107.75.75,0,0,1-.139.1A.781.781,0,0,1,7.8,7.6a.945.945,0,0,1-.235.028H4.974A1.153,1.153,0,0,1,4.688,7.6a.891.891,0,0,1-.22-.087.815.815,0,0,1-.161-.119.832.832,0,0,1-.11-.129l-.028-.043-.026-.045q-.012-.023-.024-.048T4.1,7.074q-.013.034-.028.067t-.033.064q-.018.031-.038.061t-.043.058a.8.8,0,0,1-.1.106.777.777,0,0,1-.142.1.812.812,0,0,1-.188.072.977.977,0,0,1-.238.028H.985A1.153,1.153,0,0,1,.7,7.6a.891.891,0,0,1-.22-.087A.815.815,0,0,1,.318,7.39a.832.832,0,0,1-.11-.129.943.943,0,0,1-.091-.167,1.242,1.242,0,0,1-.065-.2,1.771,1.771,0,0,1-.039-.232A2.615,2.615,0,0,1,0,6.4V1.225Q0,1.092.012.974A1.776,1.776,0,0,1,.048.752,1.3,1.3,0,0,1,.108.559,1.031,1.031,0,0,1,.192.393.936.936,0,0,1,.327.225.8.8,0,0,1,.488.1.749.749,0,0,1,.671.026.786.786,0,0,1,.873,0ZM3.331,6.825a.13.13,0,0,0,.017-.032.235.235,0,0,0,.01-.038.379.379,0,0,0,0-.04c0-.013,0-.026,0-.038a.432.432,0,0,0,0-.068.26.26,0,0,0-.012-.047.166.166,0,0,0-.013-.029l-.01-.015H.954V1.225a1.685,1.685,0,0,0-.008-.176A.94.94,0,0,0,.926.93.483.483,0,0,0,.9.858.209.209,0,0,0,.886.823l0,0,0,0,0,0,0,0,0,0,0,0,0,0,0,0A.239.239,0,0,0,.85.859.512.512,0,0,0,.828.934a.974.974,0,0,0-.019.119C.8,1.1.8,1.158.8,1.225V6.4a1.8,1.8,0,0,0,.009.192.942.942,0,0,0,.021.124.438.438,0,0,0,.022.068.149.149,0,0,0,.013.025.033.033,0,0,0,.014.01l.026.008.036.005.042,0H3.316l.009,0Zm17.261,0a.13.13,0,0,0,.017-.032.235.235,0,0,0,.01-.038.379.379,0,0,0,0-.04c0-.013,0-.026,0-.038a.432.432,0,0,0,0-.068.26.26,0,0,0-.012-.047.166.166,0,0,0-.013-.029l-.01-.015h-2.37V1.225a1.685,1.685,0,0,0-.008-.176.94.94,0,0,0-.02-.119.483.483,0,0,0-.023-.072.209.209,0,0,0-.017-.034l0,0,0,0,0,0,0,0,0,0,0,0,0,0,0,0a.239.239,0,0,0-.019.039.513.513,0,0,0-.022.075.974.974,0,0,0-.019.119c0,.048-.008.1-.008.172V6.4a1.8,1.8,0,0,0,.009.192.942.942,0,0,0,.021.124.438.438,0,0,0,.022.068.149.149,0,0,0,.013.025.033.033,0,0,0,.014.01l.026.008.036.005.042,0h2.331l.009,0ZM10.147,5.889l-1.066-4.5c-.017-.077-.034-.145-.05-.206S9,1.067,8.987,1.021,8.961.937,8.95.9,8.927.843,8.918.82a.375.375,0,0,0-.027.046.327.327,0,0,0-.03.1.382.382,0,0,0,0,.054c0,.007,0,.015,0,.025s0,.021,0,.035,0,.028,0,.045,0,.036.008.057.006.037.009.055.007.036.01.053.007.034.011.051l.012.048.016.059.015.06.015.06.015.061L10.1,5.982l.03.121.03.118.03.115.03.111q.013.048.027.093t.029.087q.015.042.031.082t.033.076q.011.023.023.043a.42.42,0,0,0,.025.038.342.342,0,0,0,.027.032.3.3,0,0,0,.029.027l.007.005.013.006.021.005.032,0,.031,0,.02,0,.013-.006.007-.005a.336.336,0,0,0,.031-.029.364.364,0,0,0,.028-.033.422.422,0,0,0,.025-.038q.012-.02.022-.043t.032-.073q.016-.038.03-.08t.029-.087q.014-.045.027-.093l.03-.112.03-.116L10.9,6.1l.03-.122,0-.006L12.067,1.59l.015-.06.015-.059.015-.058.015-.057.012-.048.011-.048.01-.049q0-.025.009-.049t.006-.041q0-.02,0-.039t0-.037q0-.018,0-.035a.323.323,0,0,0,0-.034.338.338,0,0,0-.005-.034q0-.017-.009-.035T12.151.871l0-.01,0-.01,0-.009,0-.009-.005.011,0,.011,0,.012,0,.012L12.1.938c-.007.025-.015.055-.024.093s-.021.082-.034.136-.028.115-.044.186L10.926,5.888ZM7.52.917H4.974l-.042,0L4.9.922,4.876.928,4.861.935l0,0L4.852.947a.174.174,0,0,0-.009.018c0,.008-.007.018-.011.029s-.01.032-.014.053-.009.046-.013.075-.007.062-.01.1,0,.08,0,.127V6.4a1.8,1.8,0,0,0,.009.192.942.942,0,0,0,.021.124.438.438,0,0,0,.022.068.149.149,0,0,0,.013.025.033.033,0,0,0,.014.01l.026.008.036.005.042,0H7.592A.138.138,0,0,0,7.6,6.8a.234.234,0,0,0,.008-.031.361.361,0,0,0,0-.037c0-.013,0-.027,0-.042s0-.031,0-.045,0-.027,0-.039A.26.26,0,0,0,7.6,6.577a.14.14,0,0,0-.011-.026H4.943V3.838H7.336a.169.169,0,0,0,.008-.023.267.267,0,0,0,.005-.027c0-.01,0-.02,0-.031s0-.023,0-.035,0-.027,0-.038,0-.021,0-.03a.231.231,0,0,0,0-.023.151.151,0,0,0-.005-.016h-2.4V1.163H7.52a.15.15,0,0,0,.008-.023.267.267,0,0,0,.006-.029c0-.011,0-.022,0-.034s0-.025,0-.038,0-.025,0-.037,0-.023,0-.033A.248.248,0,0,0,7.528.94.145.145,0,0,0,7.52.917Zm8.906,0H13.881l-.042,0-.033,0-.024.006-.015.007,0,0-.006.009a.173.173,0,0,0-.009.018c0,.008-.007.018-.011.03s-.01.032-.014.053-.009.046-.013.075-.007.062-.01.1,0,.08,0,.127V6.4a1.8,1.8,0,0,0,.009.192.942.942,0,0,0,.021.124.438.438,0,0,0,.022.068.149.149,0,0,0,.013.025.033.033,0,0,0,.014.01l.026.008.036.005.042,0H16.5a.137.137,0,0,0,.011-.025.234.234,0,0,0,.008-.031.36.36,0,0,0,0-.037c0-.013,0-.027,0-.042s0-.031,0-.045,0-.027,0-.039a.26.26,0,0,0-.008-.033.14.14,0,0,0-.011-.026H13.849V3.838h2.393a.17.17,0,0,0,.008-.023.267.267,0,0,0,.005-.027c0-.01,0-.02,0-.031s0-.023,0-.035,0-.027,0-.038,0-.021,0-.03a.231.231,0,0,0,0-.023.151.151,0,0,0-.005-.016h-2.4V1.163h2.577a.15.15,0,0,0,.008-.023.267.267,0,0,0,.006-.029c0-.011,0-.022,0-.034s0-.025,0-.038,0-.025,0-.037,0-.023,0-.033A.248.248,0,0,0,16.435.94.145.145,0,0,0,16.426.917ZM23.772,0a.816.816,0,0,1,.206.026A.764.764,0,0,1,24.165.1a.8.8,0,0,1,.163.123.921.921,0,0,1,.135.168,1.031,1.031,0,0,1,.084.166,1.3,1.3,0,0,1,.06.193,1.776,1.776,0,0,1,.036.221q.012.118.012.251v3.3q0,.129,0,.247T24.674,5q.01.107.024.2t.034.178a1.159,1.159,0,0,0,.035.121.857.857,0,0,0,.044.1.639.639,0,0,0,.054.088.5.5,0,0,0,.063.071.3.3,0,0,0,.063.044.418.418,0,0,0,.081.032.634.634,0,0,0,.1.019.965.965,0,0,0,.115.006.776.776,0,0,0,.179-.019.428.428,0,0,0,.124-.049.337.337,0,0,0,.082-.069.443.443,0,0,0,.053-.078.967.967,0,0,0,.064-.147,1.694,1.694,0,0,0,.059-.222,2.878,2.878,0,0,0,.043-.311c.011-.12.017-.257.017-.414V1.225q0-.134.012-.253A1.8,1.8,0,0,1,25.951.75a1.3,1.3,0,0,1,.059-.193,1.014,1.014,0,0,1,.084-.166.921.921,0,0,1,.134-.167A.794.794,0,0,1,26.389.1a.754.754,0,0,1,.184-.075.816.816,0,0,1,.4,0A.764.764,0,0,1,27.162.1a.81.81,0,0,1,.162.121.936.936,0,0,1,.136.165,1.007,1.007,0,0,1,.087.167,1.276,1.276,0,0,1,.062.195,1.75,1.75,0,0,1,.037.224,2.5,2.5,0,0,1,.012.255V4.454q0,.206-.007.4t-.022.366q-.014.175-.036.333t-.05.3a2.951,2.951,0,0,1-.077.3,2.748,2.748,0,0,1-.106.281,2.611,2.611,0,0,1-.134.263,2.541,2.541,0,0,1-.162.244,2.292,2.292,0,0,1-.166.2,2.046,2.046,0,0,1-.181.169,1.881,1.881,0,0,1-.195.141,1.8,1.8,0,0,1-.208.113,1.934,1.934,0,0,1-.217.084,2.153,2.153,0,0,1-.233.06,2.443,2.443,0,0,1-.249.036q-.128.012-.263.012-.155,0-.3-.013T24.767,7.7a2.558,2.558,0,0,1-.263-.062,2.207,2.207,0,0,1-.243-.087,1.936,1.936,0,0,1-.236-.12,1.858,1.858,0,0,1-.405-.328,1.961,1.961,0,0,1-.168-.207,2.182,2.182,0,0,1-.137-.222A2.573,2.573,0,0,1,23.2,6.42q-.054-.131-.1-.275t-.076-.3q-.031-.146-.054-.307T22.931,5.2q-.016-.174-.023-.362T22.9,4.454V1.225q0-.133.012-.251a1.776,1.776,0,0,1,.036-.221,1.3,1.3,0,0,1,.06-.193,1.03,1.03,0,0,1,.084-.166.936.936,0,0,1,.135-.168A.8.8,0,0,1,23.387.1a.749.749,0,0,1,.183-.076A.786.786,0,0,1,23.772,0Zm1.579,6.944q.092,0,.177-.008t.164-.022a1.37,1.37,0,0,0,.151-.037,1.143,1.143,0,0,0,.137-.052,1.011,1.011,0,0,0,.121-.066,1.075,1.075,0,0,0,.114-.084,1.232,1.232,0,0,0,.107-.1,1.5,1.5,0,0,0,.1-.121,1.716,1.716,0,0,0,.112-.169A1.817,1.817,0,0,0,26.63,6.1a1.961,1.961,0,0,0,.074-.2,2.148,2.148,0,0,0,.054-.212q.025-.121.043-.26t.031-.293q.012-.155.019-.325t.006-.357V1.225a1.685,1.685,0,0,0-.008-.176.94.94,0,0,0-.02-.119.483.483,0,0,0-.023-.072.209.209,0,0,0-.017-.034l0,0,0,0,0,0,0,0,0,0,0,0,0,0,0,0a.217.217,0,0,0-.017.035.5.5,0,0,0-.022.073.982.982,0,0,0-.019.121,1.76,1.76,0,0,0-.008.178v3.33q0,.243-.017.456a3.771,3.771,0,0,1-.052.4,2.546,2.546,0,0,1-.087.339,1.788,1.788,0,0,1-.123.285,1.258,1.258,0,0,1-.152.221,1.138,1.138,0,0,1-.231.2,1.18,1.18,0,0,1-.325.15,1.537,1.537,0,0,1-.434.058,1.721,1.721,0,0,1-.266-.02,1.363,1.363,0,0,1-.24-.059,1.16,1.16,0,0,1-.212-.1,1.092,1.092,0,0,1-.184-.138,1.289,1.289,0,0,1-.144-.159,1.4,1.4,0,0,1-.12-.185,1.616,1.616,0,0,1-.1-.21,1.933,1.933,0,0,1-.07-.235q-.025-.107-.043-.224t-.031-.245q-.012-.128-.018-.269t-.006-.294v-3.3c0-.067,0-.124-.008-.172a.975.975,0,0,0-.019-.119A.512.512,0,0,0,23.8.859.24.24,0,0,0,23.785.82l0,0,0,0,0,0,0,0,0,0,0,0,0,0,0,0a.239.239,0,0,0-.019.039.512.512,0,0,0-.022.075.974.974,0,0,0-.019.119c0,.048-.008.1-.008.172V4.454q0,.179.007.345t.02.32q.013.153.033.294t.047.266q.025.116.056.221t.068.2a1.8,1.8,0,0,0,.081.176,1.406,1.406,0,0,0,.093.153,1.167,1.167,0,0,0,.1.121,1.051,1.051,0,0,0,.234.189,1.141,1.141,0,0,0,.138.07,1.426,1.426,0,0,0,.167.059,1.777,1.777,0,0,0,.186.042q.1.017.2.025T25.351,6.944Zm3.54-6.83h1.223q.157,0,.3.009t.262.028A2.212,2.212,0,0,1,30.9.2a1.6,1.6,0,0,1,.2.065,1.5,1.5,0,0,1,.185.088,1.535,1.535,0,0,1,.173.114A1.628,1.628,0,0,1,31.617.6a1.775,1.775,0,0,1,.145.162,1.946,1.946,0,0,1,.122.172,2.133,2.133,0,0,1,.106.189q.049.1.09.206t.073.222q.031.109.054.225t.039.238q.016.122.023.25t.008.262a4.287,4.287,0,0,1-.034.551,3.14,3.14,0,0,1-.1.487,2.377,2.377,0,0,1-.168.421,1.939,1.939,0,0,1-.234.353,1.766,1.766,0,0,1-.312.293,1.8,1.8,0,0,1-.376.21,2.135,2.135,0,0,1-.438.127,2.813,2.813,0,0,1-.5.042h-.472v1.5a2.424,2.424,0,0,1-.012.25,1.735,1.735,0,0,1-.037.221,1.3,1.3,0,0,1-.062.194,1.057,1.057,0,0,1-.087.169.972.972,0,0,1-.136.169.815.815,0,0,1-.161.124.745.745,0,0,1-.182.076.761.761,0,0,1-.2.026.793.793,0,0,1-.2-.026.755.755,0,0,1-.185-.076.8.8,0,0,1-.162-.124.941.941,0,0,1-.135-.169A1.052,1.052,0,0,1,28,7.183a1.3,1.3,0,0,1-.06-.192,1.737,1.737,0,0,1-.036-.219,2.426,2.426,0,0,1-.012-.247V1.349a2.554,2.554,0,0,1,.014-.275,1.709,1.709,0,0,1,.042-.238,1.189,1.189,0,0,1,.07-.2.906.906,0,0,1,.1-.168A.84.84,0,0,1,28.388.23a.929.929,0,0,1,.22-.083A1.191,1.191,0,0,1,28.892.114Zm1.223,4.1a2.056,2.056,0,0,0,.323-.024,1.382,1.382,0,0,0,.275-.072A1.042,1.042,0,0,0,30.942,4a.956.956,0,0,0,.185-.17,1.171,1.171,0,0,0,.152-.238,1.643,1.643,0,0,0,.109-.3,2.43,2.43,0,0,0,.066-.354,3.6,3.6,0,0,0,.022-.41q0-.106-.006-.206t-.018-.2q-.012-.095-.029-.184t-.041-.171q-.022-.077-.048-.147t-.058-.135a1.344,1.344,0,0,0-.067-.121,1.153,1.153,0,0,0-.076-.108.98.98,0,0,0-.075-.084.823.823,0,0,0-.08-.071.741.741,0,0,0-.086-.057.726.726,0,0,0-.092-.044.815.815,0,0,0-.1-.032,1.379,1.379,0,0,0-.141-.029c-.055-.009-.12-.016-.194-.021S30.21.915,30.114.915H28.862l-.041,0a.209.209,0,0,0-.04.01.06.06,0,0,0-.027.018.118.118,0,0,0-.011.02.39.39,0,0,0-.022.065.884.884,0,0,0-.021.122,1.747,1.747,0,0,0-.01.194V6.525a1.608,1.608,0,0,0,.008.167.934.934,0,0,0,.019.117.512.512,0,0,0,.023.074.251.251,0,0,0,.02.04v0h0l0,0,0,0,0,0,0,0a.253.253,0,0,0,.02-.04.513.513,0,0,0,.024-.075.933.933,0,0,0,.02-.118,1.6,1.6,0,0,0,.008-.169v-2.3ZM28.841,1.136h1.042a2.406,2.406,0,0,1,.391.03,1.557,1.557,0,0,1,.327.089,1.087,1.087,0,0,1,.261.147.914.914,0,0,1,.2.205l.005.008a1.36,1.36,0,0,1,.108.2,1.541,1.541,0,0,1,.078.225,1.834,1.834,0,0,1,.047.248,2.253,2.253,0,0,1,.016.27q0,.118-.01.226a1.851,1.851,0,0,1-.03.205,1.486,1.486,0,0,1-.051.186,1.276,1.276,0,0,1-.072.168,1.2,1.2,0,0,1-.1.164,1.094,1.094,0,0,1-.124.14,1.07,1.07,0,0,1-.145.116,1.129,1.129,0,0,1-.166.091,1.369,1.369,0,0,1-.159.059,1.625,1.625,0,0,1-.175.042q-.091.017-.189.025t-.2.009H28.841Zm1.555.923a.171.171,0,0,0-.055-.044.471.471,0,0,0-.1-.039,1,1,0,0,0-.151-.028,1.809,1.809,0,0,0-.2-.011h-.241V3.188h.241q.063,0,.119,0t.107-.012a.854.854,0,0,0,.094-.021.6.6,0,0,0,.081-.029.32.32,0,0,0,.047-.026.28.28,0,0,0,.04-.033.3.3,0,0,0,.035-.041.4.4,0,0,0,.03-.049.462.462,0,0,0,.026-.061.706.706,0,0,0,.024-.087,1.062,1.062,0,0,0,.017-.117c0-.044.007-.095.007-.151a1.508,1.508,0,0,0-.007-.151,1.091,1.091,0,0,0-.021-.134.79.79,0,0,0-.036-.116A.585.585,0,0,0,30.4,2.059Z" transform="translate(9.244 18.454)" fill="#242424"/>
        </g>
      </g>
    </g>
  </g>
</svg>
